/* XPM */
static char * product_logo_32_xpm[] = {
"32 32 63 1",
" 	c None",
".	c #1967D2",
"+	c #2F71D8",
"@	c #1865CE",
"#	c #1458B5",
"$	c #1251A7",
"%	c #436DBC",
"&	c #6F94DE",
"*	c #7499E3",
"=	c #80A3E7",
"-	c #568FEB",
";	c #0E4591",
">	c #01112D",
",	c #000000",
"'	c #232B37",
")	c #788CAE",
"!	c #ABC7F6",
"~	c #AECBFA",
"{	c #669DF6",
"]	c #3877DB",
"^	c #1761C6",
"/	c #05285A",
"(	c #011432",
"_	c #0E4EA1",
":	c #176AD7",
"<	c #1A73E8",
"[	c #4A576D",
"}	c #A4C0EC",
"|	c #5E96F1",
"1	c #052859",
"2	c #042758",
"3	c #186CDB",
"4	c #4580E1",
"5	c #629AF3",
"6	c #266DD5",
"7	c #4F89E7",
"8	c #9AB4DD",
"9	c #3072D8",
"0	c #8AA1C7",
"a	c #5890ED",
"b	c #3A6EC3",
"c	c #96AFD8",
"d	c #5E95EE",
"e	c #101F36",
"f	c #446BAB",
"g	c #649AF2",
"h	c #28416A",
"i	c #3B4D6C",
"j	c #6094E9",
"k	c #274169",
"l	c #93B3EB",
"m	c #77A5F2",
"n	c #5787D5",
"o	c #507CC4",
"p	c #A0C1F9",
"q	c #86AFF7",
"r	c #6A9FF6",
"s	c #A7C6FA",
"t	c #8EB5F8",
"u	c #72A3F6",
"v	c #ACC9FA",
"w	c #99BCF9",
"x	c #7CAAF7",
"                                ",
"             ......             ",
"          ............          ",
"        ................        ",
"       ..................       ",
"      ....................      ",
"     ......................     ",
"    ........................    ",
"   +.........@#$$%&*********=   ",
"   -.......@;>,,,,')!~~~~~~~~   ",
"  {{].....^/(_:<<:_([}~~~~~~~~  ",
"  {{|....@123<<<<<<32[!~~~~~~~  ",
"  {{{4...;(3<<<<<<<<3()~~~~~~~  ",
" {{{{56.@>_<<<<<<<<<<_'!~~~~~~~ ",
" {{{{{7.#,:<<<<<<<<<<:,8~~~~~~~ ",
" {{{{{{9$,<<<<<<<<<<<<,0~~~~~~~ ",
" {{{{{{a$,<<<<<<<<<<<<,0~~~~~~~ ",
" {{{{{{{b,:<<<<<<<<<<:,c~~~~~~~ ",
" {{{{{{{de_<<<<<<<<<<_'!~~~~~~~ ",
"  {{{{{{{f(3<<<<<<<<3()~~~~~~~  ",
"  {{{{{{{gh23<<<<<<32i!~~~~~~~  ",
"  {{{{{{{{jh(_:<<:_(kl~~~~~~~~  ",
"   {{{{{{{{gfe,,,,efm~~~~~~~~   ",
"   {{{{{{{{{{gnoong{p~~~~~~~~   ",
"    {{{{{{{{{{{{{{{q~~~~~~~~    ",
"     {{{{{{{{{{{{{rs~~~~~~~     ",
"      {{{{{{{{{{{{t~~~~~~~      ",
"       {{{{{{{{{{uv~~~~~~       ",
"        {{{{{{{{{w~~~~~~        ",
"          {{{{{{x~~~~~          ",
"             {{{p~~             ",
"                                "};
