/* XPM */
static char * product_logo_64_xpm[] = {
"64 64 114 2",
"  	c None",
". 	c #1967D2",
"+ 	c #4D87E6",
"@ 	c #1865CE",
"# 	c #1356B1",
"$ 	c #0D428B",
"% 	c #062E65",
"& 	c #01112D",
"* 	c #000000",
"= 	c #232B37",
"- 	c #526179",
"; 	c #6D809F",
"> 	c #90A8CF",
", 	c #A8C4F1",
"' 	c #AECBFA",
") 	c #669DF6",
"! 	c #3072D8",
"~ 	c #165FC2",
"{ 	c #0B3E84",
"] 	c #6D809E",
"^ 	c #A1BCE7",
"/ 	c #5890ED",
"( 	c #0F4897",
"_ 	c #7A8FB0",
": 	c #ABC7F6",
"< 	c #3E7BDE",
"[ 	c #1761C6",
"} 	c #05295A",
"| 	c #073470",
"1 	c #1054AD",
"2 	c #1665CD",
"3 	c #196FE0",
"4 	c #1A73E8",
"5 	c #4A576D",
"6 	c #A4C0EC",
"7 	c #5E96F1",
"8 	c #206AD4",
"9 	c #155ABA",
"0 	c #031B40",
"a 	c #08397A",
"b 	c #303A49",
"c 	c #9AB4DD",
"d 	c #4882E3",
"e 	c #011432",
"f 	c #125AB9",
"g 	c #313B4B",
"h 	c #649BF5",
"i 	c #266DD5",
"j 	c #528BE9",
"k 	c #7B90B2",
"l 	c #3474DA",
"m 	c #5A92EE",
"n 	c #427EE0",
"o 	c #1864CD",
"p 	c #A8C5F2",
"q 	c #6098F2",
"r 	c #92AAD2",
"s 	c #4B85E5",
"t 	c #0C4189",
"u 	c #7184A4",
"v 	c #2B6FD7",
"w 	c #548DEA",
"x 	c #3877DB",
"y 	c #5C94EF",
"z 	c #447FE1",
"A 	c #629AF3",
"B 	c #4F89E7",
"C 	c #0C4088",
"D 	c #7286A6",
"E 	c #2D63B8",
"F 	c #92ABD3",
"G 	c #568DE6",
"H 	c #ABC7F5",
"I 	c #375B97",
"J 	c #5E91E4",
"K 	c #4770B1",
"L 	c #798FB4",
"M 	c #649AF2",
"N 	c #28426B",
"O 	c #3C4D6C",
"P 	c #A9C6F5",
"Q 	c #6094E9",
"R 	c #1A2E4D",
"S 	c #1A2D4C",
"T 	c #93B3EB",
"U 	c #598BDA",
"V 	c #6B94DB",
"W 	c #A0C1F9",
"X 	c #83ADF7",
"Y 	c #3E629C",
"Z 	c #101F36",
"` 	c #6A9FF6",
" .	c #A6C6F9",
"..	c #5584CF",
"+.	c #4167A4",
"@.	c #2D4977",
"#.	c #8EB5F8",
"$.	c #6EA1F6",
"%.	c #ACC9FA",
"&.	c #99BCF9",
"*.	c #79A8F7",
"=.	c #A3C3F9",
"-.	c #86AFF7",
";.	c #AAC8FA",
">.	c #91B7F8",
",.	c #72A4F6",
"'.	c #9CBEF9",
").	c #7CAAF7",
"!.	c #A5C5F9",
"~.	c #89B1F8",
"{.	c #6BA0F6",
"].	c #94B9F8",
"^.	c #75A5F7",
"/.	c #9EC0F9",
"                                                    . . . . . . . . . . . .                                                     ",
"                                            . . . . . . . . . . . . . . . . . . . .                                             ",
"                                        . . . . . . . . . . . . . . . . . . . . . . . .                                         ",
"                                  . . . . . . . . . . . . . . . . . . . . . . . . . . . . . .                                   ",
"                                . . . . . . . . . . . . . . . . . . . . . . . . . . . . . . . .                                 ",
"                            . . . . . . . . . . . . . . . . . . . . . . . . . . . . . . . . . . . .                             ",
"                          . . . . . . . . . . . . . . . . . . . . . . . . . . . . . . . . . . . . . .                           ",
"                      . . . . . . . . . . . . . . . . . . . . . . . . . . . . . . . . . . . . . . . . . .                       ",
"                    . . . . . . . . . . . . . . . . . . . . . . . . . . . . . . . . . . . . . . . . . . . .                     ",
"                  . . . . . . . . . . . . . . . . . . . . . . . . . . . . . . . . . . . . . . . . . . . . . .                   ",
"                . . . . . . . . . . . . . . . . . . . . . . . . . . . . . . . . . . . . . . . . . . . . . . . .                 ",
"              . . . . . . . . . . . . . . . . . . . . . . . . . . . . . . . . . . . . . . . . . . . . . . . . . .               ",
"              . . . . . . . . . . . . . . . . . . . . . . . . . . . . . . . . . . . . . . . . . . . . . . . . . .               ",
"            . . . . . . . . . . . . . . . . . . . . . . . . . . . . . . . . . . . . . . . . . . . . . . . . . . . .             ",
"          . . . . . . . . . . . . . . . . . . . . . . . . . . . . . . . . . . . . . . . . . . . . . . . . . . . . . .           ",
"          . . . . . . . . . . . . . . . . . . . . . . . . . . . . . . . . . . . . . . . . . . . . . . . . . . . . . .           ",
"        + . . . . . . . . . . . . . . . . . . . . . @ # $ % & * * = - ; > , ' ' ' ' ' ' ' ' ' ' ' ' ' ' ' ' ' ' ' ' ' '         ",
"      ) ) ! . . . . . . . . . . . . . . . . . . ~ { & * * * * * * * * * * = ] ^ ' ' ' ' ' ' ' ' ' ' ' ' ' ' ' ' ' ' ' ' '       ",
"      ) ) / . . . . . . . . . . . . . . . . @ ( * * * * * * * * * * * * * * * * _ : ' ' ' ' ' ' ' ' ' ' ' ' ' ' ' ' ' ' '       ",
"      ) ) ) < . . . . . . . . . . . . . . [ } * * * * | 1 2 3 4 4 3 2 1 | * * * * 5 6 ' ' ' ' ' ' ' ' ' ' ' ' ' ' ' ' ' '       ",
"    ) ) ) ) 7 8 . . . . . . . . . . . . 9 0 * * * a 2 4 4 4 4 4 4 4 4 4 4 2 a * * * b c ' ' ' ' ' ' ' ' ' ' ' ' ' ' ' ' ' '     ",
"    ) ) ) ) ) d . . . . . . . . . . . [ 0 * * e f 4 4 4 4 4 4 4 4 4 4 4 4 4 4 f e * * g 6 ' ' ' ' ' ' ' ' ' ' ' ' ' ' ' ' '     ",
"  ) ) ) ) ) ) h i . . . . . . . . . @ } * * e 2 4 4 4 4 4 4 4 4 4 4 4 4 4 4 4 4 2 e * * 5 : ' ' ' ' ' ' ' ' ' ' ' ' ' ' ' ' '   ",
"  ) ) ) ) ) ) ) j . . . . . . . . . ( * * e 2 4 4 4 4 4 4 4 4 4 4 4 4 4 4 4 4 4 4 2 e * * k ' ' ' ' ' ' ' ' ' ' ' ' ' ' ' ' '   ",
"  ) ) ) ) ) ) ) ) l . . . . . . . ~ * * * f 4 4 4 4 4 4 4 4 4 4 4 4 4 4 4 4 4 4 4 4 f * * * ^ ' ' ' ' ' ' ' ' ' ' ' ' ' ' ' '   ",
"  ) ) ) ) ) ) ) ) m . . . . . . . { * * a 4 4 4 4 4 4 4 4 4 4 4 4 4 4 4 4 4 4 4 4 4 4 a * * ] ' ' ' ' ' ' ' ' ' ' ' ' ' ' ' '   ",
") ) ) ) ) ) ) ) ) ) n . . . . . o & * * 2 4 4 4 4 4 4 4 4 4 4 4 4 4 4 4 4 4 4 4 4 4 4 2 * * = p ' ' ' ' ' ' ' ' ' ' ' ' ' ' ' ' ",
") ) ) ) ) ) ) ) ) ) q 8 . . . . # * * | 4 4 4 4 4 4 4 4 4 4 4 4 4 4 4 4 4 4 4 4 4 4 4 4 | * * r ' ' ' ' ' ' ' ' ' ' ' ' ' ' ' ' ",
") ) ) ) ) ) ) ) ) ) ) s . . . . t * * 1 4 4 4 4 4 4 4 4 4 4 4 4 4 4 4 4 4 4 4 4 4 4 4 4 1 * * u ' ' ' ' ' ' ' ' ' ' ' ' ' ' ' ' ",
") ) ) ) ) ) ) ) ) ) ) h v . . . % * * 2 4 4 4 4 4 4 4 4 4 4 4 4 4 4 4 4 4 4 4 4 4 4 4 4 2 * * - ' ' ' ' ' ' ' ' ' ' ' ' ' ' ' ' ",
") ) ) ) ) ) ) ) ) ) ) ) w . . . & * * 3 4 4 4 4 4 4 4 4 4 4 4 4 4 4 4 4 4 4 4 4 4 4 4 4 3 * * = ' ' ' ' ' ' ' ' ' ' ' ' ' ' ' ' ",
") ) ) ) ) ) ) ) ) ) ) ) ) x . . * * * 4 4 4 4 4 4 4 4 4 4 4 4 4 4 4 4 4 4 4 4 4 4 4 4 4 4 * * * ' ' ' ' ' ' ' ' ' ' ' ' ' ' ' ' ",
") ) ) ) ) ) ) ) ) ) ) ) ) y . . * * * 4 4 4 4 4 4 4 4 4 4 4 4 4 4 4 4 4 4 4 4 4 4 4 4 4 4 * * * ' ' ' ' ' ' ' ' ' ' ' ' ' ' ' ' ",
") ) ) ) ) ) ) ) ) ) ) ) ) ) z . & * * 3 4 4 4 4 4 4 4 4 4 4 4 4 4 4 4 4 4 4 4 4 4 4 4 4 3 * * = ' ' ' ' ' ' ' ' ' ' ' ' ' ' ' ' ",
") ) ) ) ) ) ) ) ) ) ) ) ) ) A 8 % * * 2 4 4 4 4 4 4 4 4 4 4 4 4 4 4 4 4 4 4 4 4 4 4 4 4 2 * * - ' ' ' ' ' ' ' ' ' ' ' ' ' ' ' ' ",
") ) ) ) ) ) ) ) ) ) ) ) ) ) ) B C * * 1 4 4 4 4 4 4 4 4 4 4 4 4 4 4 4 4 4 4 4 4 4 4 4 4 1 * * D ' ' ' ' ' ' ' ' ' ' ' ' ' ' ' ' ",
") ) ) ) ) ) ) ) ) ) ) ) ) ) ) h E * * | 4 4 4 4 4 4 4 4 4 4 4 4 4 4 4 4 4 4 4 4 4 4 4 4 | * * F ' ' ' ' ' ' ' ' ' ' ' ' ' ' ' ' ",
") ) ) ) ) ) ) ) ) ) ) ) ) ) ) ) G & * * 2 4 4 4 4 4 4 4 4 4 4 4 4 4 4 4 4 4 4 4 4 4 4 2 * * = H ' ' ' ' ' ' ' ' ' ' ' ' ' ' ' ' ",
"  ) ) ) ) ) ) ) ) ) ) ) ) ) ) ) ) I * * a 4 4 4 4 4 4 4 4 4 4 4 4 4 4 4 4 4 4 4 4 4 4 a * * ] ' ' ' ' ' ' ' ' ' ' ' ' ' ' ' '   ",
"  ) ) ) ) ) ) ) ) ) ) ) ) ) ) ) ) J * * * f 4 4 4 4 4 4 4 4 4 4 4 4 4 4 4 4 4 4 4 4 f * * * ^ ' ' ' ' ' ' ' ' ' ' ' ' ' ' ' '   ",
"  ) ) ) ) ) ) ) ) ) ) ) ) ) ) ) ) ) K * * e 2 4 4 4 4 4 4 4 4 4 4 4 4 4 4 4 4 4 4 2 e * * L ' ' ' ' ' ' ' ' ' ' ' ' ' ' ' ' '   ",
"  ) ) ) ) ) ) ) ) ) ) ) ) ) ) ) ) ) M N * * e 2 4 4 4 4 4 4 4 4 4 4 4 4 4 4 4 4 2 e * * O P ' ' ' ' ' ' ' ' ' ' ' ' ' ' ' ' '   ",
"    ) ) ) ) ) ) ) ) ) ) ) ) ) ) ) ) ) Q R * * e f 4 4 4 4 4 4 4 4 4 4 4 4 4 4 f e * * S T ' ' ' ' ' ' ' ' ' ' ' ' ' ' ' ' '     ",
"    ) ) ) ) ) ) ) ) ) ) ) ) ) ) ) ) ) ) U R * * * a 2 4 4 4 4 4 4 4 4 4 4 2 a * * * S V ' ' ' ' ' ' ' ' ' ' ' ' ' ' ' ' ' '     ",
"      ) ) ) ) ) ) ) ) ) ) ) ) ) ) ) ) ) ) Q N * * * * | 1 2 3 4 4 3 2 1 | * * * * N Q W ' ' ' ' ' ' ' ' ' ' ' ' ' ' ' ' '       ",
"      ) ) ) ) ) ) ) ) ) ) ) ) ) ) ) ) ) ) ) M K * * * * * * * * * * * * * * * * K M X ' ' ' ' ' ' ' ' ' ' ' ' ' ' ' ' ' '       ",
"      ) ) ) ) ) ) ) ) ) ) ) ) ) ) ) ) ) ) ) ) ) J Y Z * * * * * * * * * * Z Y J ) `  .' ' ' ' ' ' ' ' ' ' ' ' ' ' ' ' ' '       ",
"        ) ) ) ) ) ) ) ) ) ) ) ) ) ) ) ) ) ) ) ) ) ) M ..+.@.Z * * Z @.+...M ) ) ) #.' ' ' ' ' ' ' ' ' ' ' ' ' ' ' ' ' '         ",
"          ) ) ) ) ) ) ) ) ) ) ) ) ) ) ) ) ) ) ) ) ) ) ) ) ) ) ) ) ) ) ) ) ) ) ) $.%.' ' ' ' ' ' ' ' ' ' ' ' ' ' ' ' '           ",
"          ) ) ) ) ) ) ) ) ) ) ) ) ) ) ) ) ) ) ) ) ) ) ) ) ) ) ) ) ) ) ) ) ) ) ) &.' ' ' ' ' ' ' ' ' ' ' ' ' ' ' ' ' '           ",
"            ) ) ) ) ) ) ) ) ) ) ) ) ) ) ) ) ) ) ) ) ) ) ) ) ) ) ) ) ) ) ) ) ) *.' ' ' ' ' ' ' ' ' ' ' ' ' ' ' ' ' '             ",
"              ) ) ) ) ) ) ) ) ) ) ) ) ) ) ) ) ) ) ) ) ) ) ) ) ) ) ) ) ) ) ) ) =.' ' ' ' ' ' ' ' ' ' ' ' ' ' ' ' '               ",
"              ) ) ) ) ) ) ) ) ) ) ) ) ) ) ) ) ) ) ) ) ) ) ) ) ) ) ) ) ) ) ) -.' ' ' ' ' ' ' ' ' ' ' ' ' ' ' ' ' '               ",
"                ) ) ) ) ) ) ) ) ) ) ) ) ) ) ) ) ) ) ) ) ) ) ) ) ) ) ) ) ) ` ;.' ' ' ' ' ' ' ' ' ' ' ' ' ' ' ' '                 ",
"                  ) ) ) ) ) ) ) ) ) ) ) ) ) ) ) ) ) ) ) ) ) ) ) ) ) ) ) ) >.' ' ' ' ' ' ' ' ' ' ' ' ' ' ' ' '                   ",
"                    ) ) ) ) ) ) ) ) ) ) ) ) ) ) ) ) ) ) ) ) ) ) ) ) ) ) ,.%.' ' ' ' ' ' ' ' ' ' ' ' ' ' ' '                     ",
"                      ) ) ) ) ) ) ) ) ) ) ) ) ) ) ) ) ) ) ) ) ) ) ) ) ) '.' ' ' ' ' ' ' ' ' ' ' ' ' ' ' '                       ",
"                          ) ) ) ) ) ) ) ) ) ) ) ) ) ) ) ) ) ) ) ) ) ) ).' ' ' ' ' ' ' ' ' ' ' ' ' ' '                           ",
"                            ) ) ) ) ) ) ) ) ) ) ) ) ) ) ) ) ) ) ) ) ) !.' ' ' ' ' ' ' ' ' ' ' ' ' '                             ",
"                                ) ) ) ) ) ) ) ) ) ) ) ) ) ) ) ) ) ) ~.' ' ' ' ' ' ' ' ' ' ' ' '                                 ",
"                                  ) ) ) ) ) ) ) ) ) ) ) ) ) ) ) ) {.;.' ' ' ' ' ' ' ' ' ' ' '                                   ",
"                                        ) ) ) ) ) ) ) ) ) ) ) ) ) ].' ' ' ' ' ' ' ' ' '                                         ",
"                                            ) ) ) ) ) ) ) ) ) ) ^.' ' ' ' ' ' ' ' '                                             ",
"                                                    ) ) ) ) ) ) /.' ' ' ' '                                                     "};
