/* XPM */
static char * product_logo_64_xpm[] = {
"64 64 101 2",
"  	c None",
". 	c #1967D2",
"+ 	c #4782E2",
"@ 	c #1761C6",
"# 	c #114EA2",
"$ 	c #0D428B",
"% 	c #062E65",
"& 	c #536B99",
"* 	c #6D87B7",
"= 	c #93B0E4",
"- 	c #9EBCF3",
"; 	c #A3C1F5",
"> 	c #649BF5",
", 	c #266DD5",
"' 	c #1253AC",
") 	c #0D346C",
"! 	c #000000",
"~ 	c #5B6A84",
"{ 	c #8EA6CD",
"] 	c #AECBFA",
"^ 	c #669DF6",
"/ 	c #548DEA",
"( 	c #185FC2",
"_ 	c #526179",
": 	c #A1BCE7",
"< 	c #3575DB",
"[ 	c #1251A7",
"} 	c #01112D",
"| 	c #073470",
"1 	c #1054AD",
"2 	c #1668D2",
"3 	c #1A73E8",
"4 	c #232B37",
"5 	c #8AA1C7",
"6 	c #5D94EF",
"7 	c #052E65",
"8 	c #1665CD",
"9 	c #427EE0",
"0 	c #0E4EA1",
"a 	c #1971E4",
"b 	c #8EA6CC",
"c 	c #629AF3",
"d 	c #206AD4",
"e 	c #1E61C3",
"f 	c #125AB9",
"g 	c #4D87E6",
"h 	c #5D6B82",
"i 	c #3072D8",
"j 	c #568FEB",
"k 	c #08336E",
"l 	c #5A6A84",
"m 	c #3877DB",
"n 	c #A4C0EC",
"o 	c #5E96F1",
"p 	c #104EA2",
"q 	c #90A7CD",
"r 	c #4782E3",
"s 	c #7286A6",
"t 	c #4F89E7",
"u 	c #5991ED",
"v 	c #3F7CDE",
"w 	c #1A52A4",
"x 	c #869CC1",
"y 	c #477ED8",
"z 	c #244276",
"A 	c #596881",
"B 	c #5280CA",
"C 	c #2D4977",
"D 	c #5F92E4",
"E 	c #101F36",
"F 	c #9CB9E7",
"G 	c #507CC4",
"H 	c #7794C6",
"I 	c #557FC4",
"J 	c #A9C7FA",
"K 	c #91B7F8",
"L 	c #6092E4",
"M 	c #72A3F6",
"N 	c #ACC9FA",
"O 	c #355281",
"P 	c #325182",
"Q 	c #99BCF9",
"R 	c #6094E9",
"S 	c #4D78BE",
"T 	c #4167A3",
"U 	c #7CAAF7",
"V 	c #A4C4F9",
"W 	c #89B1F8",
"X 	c #6A9FF6",
"Y 	c #AAC8FA",
"Z 	c #94B9F8",
"` 	c #75A5F7",
" .	c #9EBFF9",
"..	c #80ACF7",
"+.	c #A5C5F9",
"@.	c #8CB3F8",
"#.	c #6EA1F6",
"$.	c #96BAF8",
"%.	c #A0C1F9",
"&.	c #83ADF7",
"*.	c #9FC0F9",
"                                                                                                                                ",
"                                                                                                                                ",
"                                                          . . . . . .                                                           ",
"                                                . . . . . . . . . . . . . . . .                                                 ",
"                                          . . . . . . . . . . . . . . . . . . . . . .                                           ",
"                                      . . . . . . . . . . . . . . . . . . . . . . . . . .                                       ",
"                                  . . . . . . . . . . . . . . . . . . . . . . . . . . . . . .                                   ",
"                              . . . . . . . . . . . . . . . . . . . . . . . . . . . . . . . . . .                               ",
"                            . . . . . . . . . . . . . . . . . . . . . . . . . . . . . . . . . . . .                             ",
"                          . . . . . . . . . . . . . . . . . . . . . . . . . . . . . . . . . . . . . .                           ",
"                        . . . . . . . . . . . . . . . . . . . . . . . . . . . . . . . . . . . . . . . .                         ",
"                      . . . . . . . . . . . . . . . . . . . . . . . . . . . . . . . . . . . . . . . . . .                       ",
"                    . . . . . . . . . . . . . . . . . . . . . . . . . . . . . . . . . . . . . . . . . . . .                     ",
"                  . . . . . . . . . . . . . . . . . . . . . . . . . . . . . . . . . . . . . . . . . . . . . .                   ",
"                . . . . . . . . . . . . . . . . . . . . . . . . . . . . . . . . . . . . . . . . . . . . . . . .                 ",
"              . . . . . . . . . . . . . . . . . . . . . . . . . . . . . . . . . . . . . . . . . . . . . . . . . .               ",
"              . . . . . . . . . . . . . . . . . . . . . . . . . . . . . . . . . . . . . . . . . . . . . . . . . .               ",
"            + . . . . . . . . . . . . . . . . . . . . @ # $ % % % % & * = - - - - - - - - - - - - - - - - - - - - ;             ",
"            > , . . . . . . . . . . . . . . . . . ' ) ! ! ! ! ! ! ! ! ! ! ~ { ] ] ] ] ] ] ] ] ] ] ] ] ] ] ] ] ] ] ]             ",
"          ^ ^ / . . . . . . . . . . . . . . . ( % ! ! ! ! ! ! ! ! ! ! ! ! ! ! _ : ] ] ] ] ] ] ] ] ] ] ] ] ] ] ] ] ] ]           ",
"          ^ ^ ^ < . . . . . . . . . . . . . [ } ! ! ! | 1 2 3 3 3 3 2 1 | ! ! ! 4 5 ] ] ] ] ] ] ] ] ] ] ] ] ] ] ] ] ]           ",
"        ^ ^ ^ ^ 6 . . . . . . . . . . . . [ ! ! ! 7 8 3 3 3 3 3 3 3 3 3 3 8 7 ! ! ! 5 ] ] ] ] ] ] ] ] ] ] ] ] ] ] ] ] ]         ",
"        ^ ^ ^ ^ ^ 9 . . . . . . . . . . [ ! ! ! 0 a 3 3 3 3 3 3 3 3 3 3 3 3 a 0 ! ! ! b ] ] ] ] ] ] ] ] ] ] ] ] ] ] ] ]         ",
"        ^ ^ ^ ^ ^ c d . . . . . . . . e } ! ! f 3 3 3 3 3 3 3 3 3 3 3 3 3 3 3 3 f ! ! 4 : ] ] ] ] ] ] ] ] ] ] ] ] ] ] ]         ",
"      ^ ^ ^ ^ ^ ^ ^ g . . . . . . . . % ! ! 0 3 3 3 3 3 3 3 3 3 3 3 3 3 3 3 3 3 3 0 ! ! h ] ] ] ] ] ] ] ] ] ] ] ] ] ] ] ]       ",
"      ^ ^ ^ ^ ^ ^ ^ > i . . . . . . ' ! ! 7 a 3 3 3 3 3 3 3 3 3 3 3 3 3 3 3 3 3 3 a 7 ! ! { ] ] ] ] ] ] ] ] ] ] ] ] ] ] ]       ",
"      ^ ^ ^ ^ ^ ^ ^ ^ j . . . . . . k ! ! 8 3 3 3 3 3 3 3 3 3 3 3 3 3 3 3 3 3 3 3 3 8 ! ! l ] ] ] ] ] ] ] ] ] ] ] ] ] ] ]       ",
"      ^ ^ ^ ^ ^ ^ ^ ^ ^ m . . . . @ ! ! | 3 3 3 3 3 3 3 3 3 3 3 3 3 3 3 3 3 3 3 3 3 3 | ! ! n ] ] ] ] ] ] ] ] ] ] ] ] ] ]       ",
"      ^ ^ ^ ^ ^ ^ ^ ^ ^ o . . . . p ! ! 1 3 3 3 3 3 3 3 3 3 3 3 3 3 3 3 3 3 3 3 3 3 3 1 ! ! q ] ] ] ] ] ] ] ] ] ] ] ] ] ]       ",
"    ^ ^ ^ ^ ^ ^ ^ ^ ^ ^ ^ r . . . $ ! ! 2 3 3 3 3 3 3 3 3 3 3 3 3 3 3 3 3 3 3 3 3 3 3 2 ! ! s ] ] ] ] ] ] ] ] ] ] ] ] ] ] ]     ",
"    ^ ^ ^ ^ ^ ^ ^ ^ ^ ^ ^ c , . . % ! ! 3 3 3 3 3 3 3 3 3 3 3 3 3 3 3 3 3 3 3 3 3 3 3 3 ! ! ~ ] ] ] ] ] ] ] ] ] ] ] ] ] ] ]     ",
"    ^ ^ ^ ^ ^ ^ ^ ^ ^ ^ ^ ^ t . . % ! ! 3 3 3 3 3 3 3 3 3 3 3 3 3 3 3 3 3 3 3 3 3 3 3 3 ! ! _ ] ] ] ] ] ] ] ] ] ] ] ] ] ] ]     ",
"    ^ ^ ^ ^ ^ ^ ^ ^ ^ ^ ^ ^ ^ i . % ! ! 3 3 3 3 3 3 3 3 3 3 3 3 3 3 3 3 3 3 3 3 3 3 3 3 ! ! _ ] ] ] ] ] ] ] ] ] ] ] ] ] ] ]     ",
"    ^ ^ ^ ^ ^ ^ ^ ^ ^ ^ ^ ^ ^ u . % ! ! 3 3 3 3 3 3 3 3 3 3 3 3 3 3 3 3 3 3 3 3 3 3 3 3 ! ! _ ] ] ] ] ] ] ] ] ] ] ] ] ] ] ]     ",
"    ^ ^ ^ ^ ^ ^ ^ ^ ^ ^ ^ ^ ^ ^ v $ ! ! 2 3 3 3 3 3 3 3 3 3 3 3 3 3 3 3 3 3 3 3 3 3 3 2 ! ! s ] ] ] ] ] ] ] ] ] ] ] ] ] ] ]     ",
"      ^ ^ ^ ^ ^ ^ ^ ^ ^ ^ ^ ^ ^ o w ! ! 1 3 3 3 3 3 3 3 3 3 3 3 3 3 3 3 3 3 3 3 3 3 3 1 ! ! x ] ] ] ] ] ] ] ] ] ] ] ] ] ]       ",
"      ^ ^ ^ ^ ^ ^ ^ ^ ^ ^ ^ ^ ^ ^ y ! ! | 3 3 3 3 3 3 3 3 3 3 3 3 3 3 3 3 3 3 3 3 3 3 | ! ! n ] ] ] ] ] ] ] ] ] ] ] ] ] ]       ",
"      ^ ^ ^ ^ ^ ^ ^ ^ ^ ^ ^ ^ ^ ^ > z ! ! 8 3 3 3 3 3 3 3 3 3 3 3 3 3 3 3 3 3 3 3 3 8 ! ! A ] ] ] ] ] ] ] ] ] ] ] ] ] ] ]       ",
"      ^ ^ ^ ^ ^ ^ ^ ^ ^ ^ ^ ^ ^ ^ ^ B ! ! 7 a 3 3 3 3 3 3 3 3 3 3 3 3 3 3 3 3 3 3 a 7 ! ! { ] ] ] ] ] ] ] ] ] ] ] ] ] ] ]       ",
"      ^ ^ ^ ^ ^ ^ ^ ^ ^ ^ ^ ^ ^ ^ ^ ^ C ! ! 0 3 3 3 3 3 3 3 3 3 3 3 3 3 3 3 3 3 3 0 ! ! _ ] ] ] ] ] ] ] ] ] ] ] ] ] ] ] ]       ",
"        ^ ^ ^ ^ ^ ^ ^ ^ ^ ^ ^ ^ ^ ^ ^ D E ! ! f 3 3 3 3 3 3 3 3 3 3 3 3 3 3 3 3 f ! ! E F ] ] ] ] ] ] ] ] ] ] ] ] ] ] ]         ",
"        ^ ^ ^ ^ ^ ^ ^ ^ ^ ^ ^ ^ ^ ^ ^ ^ G ! ! ! 0 a 3 3 3 3 3 3 3 3 3 3 3 3 a 0 ! ! ! H ] ] ] ] ] ] ] ] ] ] ] ] ] ] ] ]         ",
"        ^ ^ ^ ^ ^ ^ ^ ^ ^ ^ ^ ^ ^ ^ ^ ^ ^ G ! ! ! 7 8 3 3 3 3 3 3 3 3 3 3 8 7 ! ! ! I J ] ] ] ] ] ] ] ] ] ] ] ] ] ] ] ]         ",
"          ^ ^ ^ ^ ^ ^ ^ ^ ^ ^ ^ ^ ^ ^ ^ ^ ^ G E ! ! ! | 1 2 3 3 3 3 2 1 | ! ! ! E G K ] ] ] ] ] ] ] ] ] ] ] ] ] ] ] ]           ",
"          ^ ^ ^ ^ ^ ^ ^ ^ ^ ^ ^ ^ ^ ^ ^ ^ ^ ^ D C ! ! ! ! ! ! ! ! ! ! ! ! ! ! C L M N ] ] ] ] ] ] ] ] ] ] ] ] ] ] ] ]           ",
"            ^ ^ ^ ^ ^ ^ ^ ^ ^ ^ ^ ^ ^ ^ ^ ^ ^ ^ ^ B O ! ! ! ! ! ! ! ! ! ! P B ^ ^ Q ] ] ] ] ] ] ] ] ] ] ] ] ] ] ] ]             ",
"            ^ ^ ^ ^ ^ ^ ^ ^ ^ ^ ^ ^ ^ ^ ^ ^ ^ ^ ^ ^ ^ R S T C C C C T S R ^ ^ ^ U ] ] ] ] ] ] ] ] ] ] ] ] ] ] ] ] ]             ",
"              ^ ^ ^ ^ ^ ^ ^ ^ ^ ^ ^ ^ ^ ^ ^ ^ ^ ^ ^ ^ ^ ^ ^ ^ ^ ^ ^ ^ ^ ^ ^ ^ ^ V ] ] ] ] ] ] ] ] ] ] ] ] ] ] ] ]               ",
"              ^ ^ ^ ^ ^ ^ ^ ^ ^ ^ ^ ^ ^ ^ ^ ^ ^ ^ ^ ^ ^ ^ ^ ^ ^ ^ ^ ^ ^ ^ ^ ^ W ] ] ] ] ] ] ] ] ] ] ] ] ] ] ] ] ]               ",
"                ^ ^ ^ ^ ^ ^ ^ ^ ^ ^ ^ ^ ^ ^ ^ ^ ^ ^ ^ ^ ^ ^ ^ ^ ^ ^ ^ ^ ^ ^ X Y ] ] ] ] ] ] ] ] ] ] ] ] ] ] ] ]                 ",
"                  ^ ^ ^ ^ ^ ^ ^ ^ ^ ^ ^ ^ ^ ^ ^ ^ ^ ^ ^ ^ ^ ^ ^ ^ ^ ^ ^ ^ ^ Z ] ] ] ] ] ] ] ] ] ] ] ] ] ] ] ]                   ",
"                    ^ ^ ^ ^ ^ ^ ^ ^ ^ ^ ^ ^ ^ ^ ^ ^ ^ ^ ^ ^ ^ ^ ^ ^ ^ ^ ^ ` N ] ] ] ] ] ] ] ] ] ] ] ] ] ] ]                     ",
"                      ^ ^ ^ ^ ^ ^ ^ ^ ^ ^ ^ ^ ^ ^ ^ ^ ^ ^ ^ ^ ^ ^ ^ ^ ^ ^  .] ] ] ] ] ] ] ] ] ] ] ] ] ] ]                       ",
"                        ^ ^ ^ ^ ^ ^ ^ ^ ^ ^ ^ ^ ^ ^ ^ ^ ^ ^ ^ ^ ^ ^ ^ ^ ..] ] ] ] ] ] ] ] ] ] ] ] ] ] ]                         ",
"                          ^ ^ ^ ^ ^ ^ ^ ^ ^ ^ ^ ^ ^ ^ ^ ^ ^ ^ ^ ^ ^ ^ ^ +.] ] ] ] ] ] ] ] ] ] ] ] ] ]                           ",
"                            ^ ^ ^ ^ ^ ^ ^ ^ ^ ^ ^ ^ ^ ^ ^ ^ ^ ^ ^ ^ ^ @.] ] ] ] ] ] ] ] ] ] ] ] ] ]                             ",
"                              ^ ^ ^ ^ ^ ^ ^ ^ ^ ^ ^ ^ ^ ^ ^ ^ ^ ^ ^ #.Y ] ] ] ] ] ] ] ] ] ] ] ] ]                               ",
"                                  ^ ^ ^ ^ ^ ^ ^ ^ ^ ^ ^ ^ ^ ^ ^ ^ ^ $.] ] ] ] ] ] ] ] ] ] ] ]                                   ",
"                                      ^ ^ ^ ^ ^ ^ ^ ^ ^ ^ ^ ^ ^ ^ ` ] ] ] ] ] ] ] ] ] ] ]                                       ",
"                                          ^ ^ ^ ^ ^ ^ ^ ^ ^ ^ ^ ^ %.] ] ] ] ] ] ] ] ]                                           ",
"                                                ^ ^ ^ ^ ^ ^ ^ ^ &.] ] ] ] ] ] ]                                                 ",
"                                                          ^ ^ ^ *.] ]                                                           ",
"                                                                                                                                ",
"                                                                                                                                "};
