/* XPM */
static char * product_logo_32_xpm[] = {
"32 32 57 1",
" 	c None",
".	c #1967D2",
"+	c #4882E3",
"@	c #165FC2",
"#	c #0D428B",
"$	c #05295A",
"%	c #000000",
"&	c #4A576D",
"*	c #7286A6",
"=	c #A1BCE8",
"-	c #AECBFA",
";	c #669DF6",
">	c #629AF3",
",	c #266DD5",
"'	c #1865CE",
")	c #011432",
"!	c #0B428B",
"~	c #0E4B9B",
"{	c #ABC7F6",
"]	c #508AE8",
"^	c #08336E",
"/	c #0F51A7",
"(	c #1971E4",
"_	c #1A73E8",
":	c #5A6A84",
"<	c #3072D8",
"[	c #125AB9",
"}	c #5A92EE",
"|	c #A1BCE7",
"1	c #3F7CDE",
"2	c #5E96F1",
"3	c #206AD4",
"4	c #4A84E4",
"5	c #649BF5",
"6	c #548DEA",
"7	c #2F5798",
"8	c #5A8DE1",
"9	c #4167A3",
"0	c #6F83A6",
"a	c #649AF2",
"b	c #325081",
"c	c #3B5582",
"d	c #A9C6F5",
"e	c #90B4F4",
"f	c #5E91E4",
"g	c #28426B",
"h	c #72A3F6",
"i	c #ACC9FA",
"j	c #9CBEF9",
"k	c #7CAAF7",
"l	c #A5C5F9",
"m	c #89B1F8",
"n	c #6A9FF6",
"o	c #AAC8FA",
"p	c #94B9F8",
"q	c #75A5F7",
"r	c #9EC0F9",
"            ........            ",
"         ..............         ",
"       ..................       ",
"      ....................      ",
"     ......................     ",
"    ........................    ",
"   ..........................   ",
"  ............................  ",
"  +.........@#$%%&*=----------  ",
" ;>,......'#%)!~~!)%*{--------- ",
" ;;].....'^%/(____(/%:{-------- ",
" ;;;<....#%[________[%*-------- ",
";;;;}...@%/__________/%|--------",
";;;;;1..#)(__________()*--------",
";;;;;23.$!____________!&--------",
";;;;;;4.%~____________~%--------",
";;;;;;5,%~____________~%--------",
";;;;;;;6$!____________!&--------",
";;;;;;;;7)(__________()*--------",
";;;;;;;;8%/__________/%|--------",
" ;;;;;;;;9%[________[%0-------- ",
" ;;;;;;;;ab%/(____(/%cd-------- ",
" ;;;;;;;;;a9%)!~~!)%9e--------- ",
"  ;;;;;;;;;;f9g%%g9fhi--------  ",
"  ;;;;;;;;;;;;;;;;;;j---------  ",
"   ;;;;;;;;;;;;;;;;k---------   ",
"    ;;;;;;;;;;;;;;;l--------    ",
"     ;;;;;;;;;;;;;m--------     ",
"      ;;;;;;;;;;;no-------      ",
"       ;;;;;;;;;;p-------       ",
"         ;;;;;;;q------         ",
"            ;;;;r---            "};
