/* XPM */
static char * product_logo_64_xpm[] = {
"64 64 99 2",
"  	c None",
". 	c #1967D2",
"+ 	c #4782E2",
"@ 	c #1761C6",
"# 	c #114EA2",
"$ 	c #0D428B",
"% 	c #062E65",
"& 	c #536B99",
"* 	c #6D87B7",
"= 	c #93B0E4",
"- 	c #9EBCF3",
"; 	c #A3C1F5",
"> 	c #649BF5",
", 	c #266DD5",
"' 	c #1253AC",
") 	c #073069",
"! 	c #000000",
"~ 	c #586882",
"{ 	c #8EA6CD",
"] 	c #AECBFA",
"^ 	c #669DF6",
"/ 	c #548DEA",
"( 	c #165EC2",
"_ 	c #526179",
": 	c #A1BCE7",
"< 	c #3575DB",
"[ 	c #1251A7",
"} 	c #01112D",
"| 	c #073470",
"1 	c #1054AD",
"2 	c #1668D2",
"3 	c #1A73E8",
"4 	c #232B37",
"5 	c #8AA1C7",
"6 	c #5D94EF",
"7 	c #052E65",
"8 	c #1665CD",
"9 	c #427EE0",
"0 	c #0E4EA1",
"a 	c #1971E4",
"b 	c #8BA3C9",
"c 	c #629AF3",
"d 	c #206AD4",
"e 	c #165EC1",
"f 	c #125AB9",
"g 	c #4D87E6",
"h 	c #54637C",
"i 	c #3072D8",
"j 	c #568FEB",
"k 	c #08326D",
"l 	c #5A6A84",
"m 	c #3877DB",
"n 	c #A4C0EC",
"o 	c #5E96F1",
"p 	c #8CA3CA",
"q 	c #4782E3",
"r 	c #7286A6",
"s 	c #4F89E7",
"t 	c #5991ED",
"u 	c #3F7CDE",
"v 	c #1A52A4",
"w 	c #869CC1",
"x 	c #477ED8",
"y 	c #1D3D73",
"z 	c #56657E",
"A 	c #5280CA",
"B 	c #2D4977",
"C 	c #5D90E2",
"D 	c #101F36",
"E 	c #9CB8E6",
"F 	c #507CC4",
"G 	c #7794C6",
"H 	c #557FC4",
"I 	c #A9C7FA",
"J 	c #91B7F8",
"K 	c #72A3F6",
"L 	c #ACC9FA",
"M 	c #314F7F",
"N 	c #325081",
"O 	c #99BCF9",
"P 	c #6094E9",
"Q 	c #4D78BE",
"R 	c #4167A3",
"S 	c #7CAAF7",
"T 	c #A4C4F9",
"U 	c #89B1F8",
"V 	c #6A9FF6",
"W 	c #AAC8FA",
"X 	c #94B9F8",
"Y 	c #75A5F7",
"Z 	c #9EBFF9",
"` 	c #80ACF7",
" .	c #A5C5F9",
"..	c #8CB3F8",
"+.	c #6EA1F6",
"@.	c #96BAF8",
"#.	c #A0C1F9",
"$.	c #83ADF7",
"%.	c #9FC0F9",
"                                                                                                                                ",
"                                                                                                                                ",
"                                                          . . . . . .                                                           ",
"                                                . . . . . . . . . . . . . . . .                                                 ",
"                                          . . . . . . . . . . . . . . . . . . . . . .                                           ",
"                                      . . . . . . . . . . . . . . . . . . . . . . . . . .                                       ",
"                                  . . . . . . . . . . . . . . . . . . . . . . . . . . . . . .                                   ",
"                              . . . . . . . . . . . . . . . . . . . . . . . . . . . . . . . . . .                               ",
"                            . . . . . . . . . . . . . . . . . . . . . . . . . . . . . . . . . . . .                             ",
"                          . . . . . . . . . . . . . . . . . . . . . . . . . . . . . . . . . . . . . .                           ",
"                        . . . . . . . . . . . . . . . . . . . . . . . . . . . . . . . . . . . . . . . .                         ",
"                      . . . . . . . . . . . . . . . . . . . . . . . . . . . . . . . . . . . . . . . . . .                       ",
"                    . . . . . . . . . . . . . . . . . . . . . . . . . . . . . . . . . . . . . . . . . . . .                     ",
"                  . . . . . . . . . . . . . . . . . . . . . . . . . . . . . . . . . . . . . . . . . . . . . .                   ",
"                . . . . . . . . . . . . . . . . . . . . . . . . . . . . . . . . . . . . . . . . . . . . . . . .                 ",
"              . . . . . . . . . . . . . . . . . . . . . . . . . . . . . . . . . . . . . . . . . . . . . . . . . .               ",
"              . . . . . . . . . . . . . . . . . . . . . . . . . . . . . . . . . . . . . . . . . . . . . . . . . .               ",
"            + . . . . . . . . . . . . . . . . . . . . @ # $ % % % % & * = - - - - - - - - - - - - - - - - - - - - ;             ",
"            > , . . . . . . . . . . . . . . . . . ' ) ! ! ! ! ! ! ! ! ! ! ~ { ] ] ] ] ] ] ] ] ] ] ] ] ] ] ] ] ] ] ]             ",
"          ^ ^ / . . . . . . . . . . . . . . . ( % ! ! ! ! ! ! ! ! ! ! ! ! ! ! _ : ] ] ] ] ] ] ] ] ] ] ] ] ] ] ] ] ] ]           ",
"          ^ ^ ^ < . . . . . . . . . . . . . [ } ! ! ! | 1 2 3 3 3 3 2 1 | ! ! ! 4 5 ] ] ] ] ] ] ] ] ] ] ] ] ] ] ] ] ]           ",
"        ^ ^ ^ ^ 6 . . . . . . . . . . . . [ ! ! ! 7 8 3 3 3 3 3 3 3 3 3 3 8 7 ! ! ! 5 ] ] ] ] ] ] ] ] ] ] ] ] ] ] ] ] ]         ",
"        ^ ^ ^ ^ ^ 9 . . . . . . . . . . [ ! ! ! 0 a 3 3 3 3 3 3 3 3 3 3 3 3 a 0 ! ! ! b ] ] ] ] ] ] ] ] ] ] ] ] ] ] ] ]         ",
"        ^ ^ ^ ^ ^ c d . . . . . . . . e } ! ! f 3 3 3 3 3 3 3 3 3 3 3 3 3 3 3 3 f ! ! 4 : ] ] ] ] ] ] ] ] ] ] ] ] ] ] ]         ",
"      ^ ^ ^ ^ ^ ^ ^ g . . . . . . . . % ! ! 0 3 3 3 3 3 3 3 3 3 3 3 3 3 3 3 3 3 3 0 ! ! h ] ] ] ] ] ] ] ] ] ] ] ] ] ] ] ]       ",
"      ^ ^ ^ ^ ^ ^ ^ > i . . . . . . ' ! ! 7 a 3 3 3 3 3 3 3 3 3 3 3 3 3 3 3 3 3 3 a 7 ! ! { ] ] ] ] ] ] ] ] ] ] ] ] ] ] ]       ",
"      ^ ^ ^ ^ ^ ^ ^ ^ j . . . . . . k ! ! 8 3 3 3 3 3 3 3 3 3 3 3 3 3 3 3 3 3 3 3 3 8 ! ! l ] ] ] ] ] ] ] ] ] ] ] ] ] ] ]       ",
"      ^ ^ ^ ^ ^ ^ ^ ^ ^ m . . . . @ ! ! | 3 3 3 3 3 3 3 3 3 3 3 3 3 3 3 3 3 3 3 3 3 3 | ! ! n ] ] ] ] ] ] ] ] ] ] ] ] ] ]       ",
"      ^ ^ ^ ^ ^ ^ ^ ^ ^ o . . . . # ! ! 1 3 3 3 3 3 3 3 3 3 3 3 3 3 3 3 3 3 3 3 3 3 3 1 ! ! p ] ] ] ] ] ] ] ] ] ] ] ] ] ]       ",
"    ^ ^ ^ ^ ^ ^ ^ ^ ^ ^ ^ q . . . $ ! ! 2 3 3 3 3 3 3 3 3 3 3 3 3 3 3 3 3 3 3 3 3 3 3 2 ! ! r ] ] ] ] ] ] ] ] ] ] ] ] ] ] ]     ",
"    ^ ^ ^ ^ ^ ^ ^ ^ ^ ^ ^ c , . . % ! ! 3 3 3 3 3 3 3 3 3 3 3 3 3 3 3 3 3 3 3 3 3 3 3 3 ! ! ~ ] ] ] ] ] ] ] ] ] ] ] ] ] ] ]     ",
"    ^ ^ ^ ^ ^ ^ ^ ^ ^ ^ ^ ^ s . . % ! ! 3 3 3 3 3 3 3 3 3 3 3 3 3 3 3 3 3 3 3 3 3 3 3 3 ! ! _ ] ] ] ] ] ] ] ] ] ] ] ] ] ] ]     ",
"    ^ ^ ^ ^ ^ ^ ^ ^ ^ ^ ^ ^ ^ i . % ! ! 3 3 3 3 3 3 3 3 3 3 3 3 3 3 3 3 3 3 3 3 3 3 3 3 ! ! _ ] ] ] ] ] ] ] ] ] ] ] ] ] ] ]     ",
"    ^ ^ ^ ^ ^ ^ ^ ^ ^ ^ ^ ^ ^ t . % ! ! 3 3 3 3 3 3 3 3 3 3 3 3 3 3 3 3 3 3 3 3 3 3 3 3 ! ! _ ] ] ] ] ] ] ] ] ] ] ] ] ] ] ]     ",
"    ^ ^ ^ ^ ^ ^ ^ ^ ^ ^ ^ ^ ^ ^ u $ ! ! 2 3 3 3 3 3 3 3 3 3 3 3 3 3 3 3 3 3 3 3 3 3 3 2 ! ! r ] ] ] ] ] ] ] ] ] ] ] ] ] ] ]     ",
"      ^ ^ ^ ^ ^ ^ ^ ^ ^ ^ ^ ^ ^ o v ! ! 1 3 3 3 3 3 3 3 3 3 3 3 3 3 3 3 3 3 3 3 3 3 3 1 ! ! w ] ] ] ] ] ] ] ] ] ] ] ] ] ]       ",
"      ^ ^ ^ ^ ^ ^ ^ ^ ^ ^ ^ ^ ^ ^ x ! ! | 3 3 3 3 3 3 3 3 3 3 3 3 3 3 3 3 3 3 3 3 3 3 | ! ! n ] ] ] ] ] ] ] ] ] ] ] ] ] ]       ",
"      ^ ^ ^ ^ ^ ^ ^ ^ ^ ^ ^ ^ ^ ^ > y ! ! 8 3 3 3 3 3 3 3 3 3 3 3 3 3 3 3 3 3 3 3 3 8 ! ! z ] ] ] ] ] ] ] ] ] ] ] ] ] ] ]       ",
"      ^ ^ ^ ^ ^ ^ ^ ^ ^ ^ ^ ^ ^ ^ ^ A ! ! 7 a 3 3 3 3 3 3 3 3 3 3 3 3 3 3 3 3 3 3 a 7 ! ! { ] ] ] ] ] ] ] ] ] ] ] ] ] ] ]       ",
"      ^ ^ ^ ^ ^ ^ ^ ^ ^ ^ ^ ^ ^ ^ ^ ^ B ! ! 0 3 3 3 3 3 3 3 3 3 3 3 3 3 3 3 3 3 3 0 ! ! _ ] ] ] ] ] ] ] ] ] ] ] ] ] ] ] ]       ",
"        ^ ^ ^ ^ ^ ^ ^ ^ ^ ^ ^ ^ ^ ^ ^ C D ! ! f 3 3 3 3 3 3 3 3 3 3 3 3 3 3 3 3 f ! ! D E ] ] ] ] ] ] ] ] ] ] ] ] ] ] ]         ",
"        ^ ^ ^ ^ ^ ^ ^ ^ ^ ^ ^ ^ ^ ^ ^ ^ F ! ! ! 0 a 3 3 3 3 3 3 3 3 3 3 3 3 a 0 ! ! ! G ] ] ] ] ] ] ] ] ] ] ] ] ] ] ] ]         ",
"        ^ ^ ^ ^ ^ ^ ^ ^ ^ ^ ^ ^ ^ ^ ^ ^ ^ F ! ! ! 7 8 3 3 3 3 3 3 3 3 3 3 8 7 ! ! ! H I ] ] ] ] ] ] ] ] ] ] ] ] ] ] ] ]         ",
"          ^ ^ ^ ^ ^ ^ ^ ^ ^ ^ ^ ^ ^ ^ ^ ^ ^ F D ! ! ! | 1 2 3 3 3 3 2 1 | ! ! ! D F J ] ] ] ] ] ] ] ] ] ] ] ] ] ] ] ]           ",
"          ^ ^ ^ ^ ^ ^ ^ ^ ^ ^ ^ ^ ^ ^ ^ ^ ^ ^ C B ! ! ! ! ! ! ! ! ! ! ! ! ! ! B C K L ] ] ] ] ] ] ] ] ] ] ] ] ] ] ] ]           ",
"            ^ ^ ^ ^ ^ ^ ^ ^ ^ ^ ^ ^ ^ ^ ^ ^ ^ ^ ^ A M ! ! ! ! ! ! ! ! ! ! N A ^ ^ O ] ] ] ] ] ] ] ] ] ] ] ] ] ] ] ]             ",
"            ^ ^ ^ ^ ^ ^ ^ ^ ^ ^ ^ ^ ^ ^ ^ ^ ^ ^ ^ ^ ^ P Q R B B B B R Q P ^ ^ ^ S ] ] ] ] ] ] ] ] ] ] ] ] ] ] ] ] ]             ",
"              ^ ^ ^ ^ ^ ^ ^ ^ ^ ^ ^ ^ ^ ^ ^ ^ ^ ^ ^ ^ ^ ^ ^ ^ ^ ^ ^ ^ ^ ^ ^ ^ ^ T ] ] ] ] ] ] ] ] ] ] ] ] ] ] ] ]               ",
"              ^ ^ ^ ^ ^ ^ ^ ^ ^ ^ ^ ^ ^ ^ ^ ^ ^ ^ ^ ^ ^ ^ ^ ^ ^ ^ ^ ^ ^ ^ ^ ^ U ] ] ] ] ] ] ] ] ] ] ] ] ] ] ] ] ]               ",
"                ^ ^ ^ ^ ^ ^ ^ ^ ^ ^ ^ ^ ^ ^ ^ ^ ^ ^ ^ ^ ^ ^ ^ ^ ^ ^ ^ ^ ^ ^ V W ] ] ] ] ] ] ] ] ] ] ] ] ] ] ] ]                 ",
"                  ^ ^ ^ ^ ^ ^ ^ ^ ^ ^ ^ ^ ^ ^ ^ ^ ^ ^ ^ ^ ^ ^ ^ ^ ^ ^ ^ ^ ^ X ] ] ] ] ] ] ] ] ] ] ] ] ] ] ] ]                   ",
"                    ^ ^ ^ ^ ^ ^ ^ ^ ^ ^ ^ ^ ^ ^ ^ ^ ^ ^ ^ ^ ^ ^ ^ ^ ^ ^ ^ Y L ] ] ] ] ] ] ] ] ] ] ] ] ] ] ]                     ",
"                      ^ ^ ^ ^ ^ ^ ^ ^ ^ ^ ^ ^ ^ ^ ^ ^ ^ ^ ^ ^ ^ ^ ^ ^ ^ ^ Z ] ] ] ] ] ] ] ] ] ] ] ] ] ] ]                       ",
"                        ^ ^ ^ ^ ^ ^ ^ ^ ^ ^ ^ ^ ^ ^ ^ ^ ^ ^ ^ ^ ^ ^ ^ ^ ` ] ] ] ] ] ] ] ] ] ] ] ] ] ] ]                         ",
"                          ^ ^ ^ ^ ^ ^ ^ ^ ^ ^ ^ ^ ^ ^ ^ ^ ^ ^ ^ ^ ^ ^ ^  .] ] ] ] ] ] ] ] ] ] ] ] ] ]                           ",
"                            ^ ^ ^ ^ ^ ^ ^ ^ ^ ^ ^ ^ ^ ^ ^ ^ ^ ^ ^ ^ ^ ..] ] ] ] ] ] ] ] ] ] ] ] ] ]                             ",
"                              ^ ^ ^ ^ ^ ^ ^ ^ ^ ^ ^ ^ ^ ^ ^ ^ ^ ^ ^ +.W ] ] ] ] ] ] ] ] ] ] ] ] ]                               ",
"                                  ^ ^ ^ ^ ^ ^ ^ ^ ^ ^ ^ ^ ^ ^ ^ ^ ^ @.] ] ] ] ] ] ] ] ] ] ] ]                                   ",
"                                      ^ ^ ^ ^ ^ ^ ^ ^ ^ ^ ^ ^ ^ ^ Y ] ] ] ] ] ] ] ] ] ] ]                                       ",
"                                          ^ ^ ^ ^ ^ ^ ^ ^ ^ ^ ^ ^ #.] ] ] ] ] ] ] ] ]                                           ",
"                                                ^ ^ ^ ^ ^ ^ ^ ^ $.] ] ] ] ] ] ]                                                 ",
"                                                          ^ ^ ^ %.] ]                                                           ",
"                                                                                                                                ",
"                                                                                                                                "};
