<?xml version="1.0" standalone="no"?>
<!DOCTYPE svg PUBLIC "-//W3C//DTD SVG 20010904//EN"
 "http://www.w3.org/TR/2001/REC-SVG-20010904/DTD/svg10.dtd">
<svg version="1.0" xmlns="http://www.w3.org/2000/svg"
 width="8192.000000pt" height="8192.000000pt" viewBox="0 0 8192.000000 8192.000000"
 preserveAspectRatio="xMidYMid meet">

<g transform="translate(0.000000,8192.000000) scale(0.100000,-0.100000)"
fill="#000000" stroke="none">
<path d="M39940 78460 c-2828 -82 -5542 -453 -8215 -1121 -3543 -886 -6956
-2292 -10102 -4160 -3281 -1948 -6204 -4339 -8804 -7199 -1226 -1349 -2350
-2790 -3444 -4415 -93 -137 -170 -252 -172 -254 -2 -3 -35 26 -74 65 l-70 69
62 -110 c113 -201 1813 -3118 8669 -14875 1021 -1752 3226 -5534 4900 -8405
1673 -2871 3047 -5224 3053 -5230 5 -5 -4 15 -20 45 -139 252 -373 734 -537
1103 -1184 2668 -1665 5588 -1406 8532 213 2410 937 4757 2118 6865 1350 2410
3256 4462 5557 5985 2674 1769 5729 2738 8965 2845 188 6 6486 10 17313 10
9359 0 17017 3 17017 6 0 4 -48 101 -107 215 l-108 209 -115 0 -115 0 -46 88
c-25 48 -119 218 -209 377 -4411 7841 -11490 13891 -19905 17012 -3643 1351
-7473 2129 -11390 2313 -121 6 -337 15 -480 21 -334 13 -1963 20 -2335 9z"/>
<path d="M41748 58193 c23 -2 61 -2 85 0 23 2 4 4 -43 4 -47 0 -66 -2 -42 -4z"/>
<path d="M41907 58188 c2 -5 32 -8 66 -8 301 0 1251 -106 1839 -204 l258 -43
72 17 c50 12 67 19 53 23 -33 10 -476 74 -700 101 -439 53 -854 88 -1255 106
-135 6 -266 12 -292 13 -25 1 -44 -1 -41 -5z"/>
<path d="M40430 54743 c-1624 -71 -3107 -383 -4560 -960 -2369 -941 -4449
-2538 -5975 -4588 -1075 -1443 -1855 -3074 -2295 -4800 -225 -880 -339 -1606
-411 -2615 -17 -240 -23 -1104 -10 -1400 104 -2336 759 -4527 1948 -6508 473
-789 1012 -1514 1642 -2207 187 -206 690 -709 896 -896 1113 -1012 2358 -1825
3705 -2422 1405 -623 2913 -1007 4435 -1132 391 -32 492 -36 975 -42 651 -8
1130 14 1707 77 2901 318 5637 1563 7803 3550 197 181 684 669 861 865 1348
1483 2336 3187 2946 5080 313 972 522 2025 607 3055 37 443 41 553 41 1160 0
687 -14 971 -76 1525 -320 2894 -1530 5574 -3499 7750 -210 231 -704 725 -935
935 -1760 1592 -3852 2691 -6140 3225 -813 190 -1667 306 -2530 345 -194 9
-960 11 -1135 3z"/>
<path d="M55510 31687 c-77 -125 -361 -545 -495 -732 -384 -538 -807 -1065
-1246 -1551 l-116 -129 -265 -465 c-146 -256 -271 -476 -278 -490 l-13 -25 24
20 c13 11 5 -1 -18 -25 -44 -47 -299 -492 -9560 -16700 -2538 -4441 -4618
-8079 -4622 -8083 -17 -17 -1364 81 -1834 133 -84 10 -90 9 -177 -21 l-89 -31
-91 -154 c-50 -85 -88 -158 -86 -163 3 -4 36 -11 73 -15 37 -3 176 -17 308
-31 520 -55 1454 -129 1875 -150 63 -3 147 -8 186 -11 l71 -5 123 218 c150
264 1691 2960 4257 7448 1051 1837 2995 5237 4320 7555 1326 2318 3315 5797
4420 7730 1106 1933 2034 3556 2062 3605 28 50 314 551 636 1114 322 564 583
1026 582 1027 -2 2 -23 -29 -47 -69z"/>
</g>
</svg>
