<svg xmlns="http://www.w3.org/2000/svg" fill="none" viewBox="0 0 24 24"><path fill="#62757E" d="M20.62 19.96h-.59a7.6 7.6 0 0 1 0-3.08h.59a.77.77 0 1 0 0-1.54V3.89c0-.77-.63-1.39-1.4-1.39H5.953C4.552 2.5 3.39 3.57 3.39 4.92v13.5c0 1.7 1.402 3.08 3.123 3.08H20.62a.77.77 0 1 0 0-1.54ZM9.714 4.04h4.625v5.3l-1.822-1.49a.784.784 0 0 0-.98 0L9.713 9.34v-5.3Zm8.744 15.92H6.514c-.88 0-1.581-.69-1.581-1.54 0-.85.7-1.54 1.581-1.54h11.944a9.353 9.353 0 0 0 0 3.08Zm.621-4.62H6.514c-.58 0-1.12.17-1.581.44V4.92c0-.48.45-.89 1.03-.89h2.22v6.92c0 .65.76 1.01 1.261.59l2.593-2.12 2.592 2.12c.5.41 1.261.05 1.261-.59V4.04h3.21v11.31l-.02-.01Z"/></svg>