<svg xmlns="http://www.w3.org/2000/svg" width=" 192" height=" 192" fill-rule="evenodd" class="vector-svg"><path fill="gray" stroke="gray" stroke-width="0px" stroke-linecap="round" shape-rendering="geometricPrecision" d="M 172 60 m -12 0 a 12 12 0 1 0 24 0 a 12 12 0 1 0 -24 0" style="fill: #aecbfa; stroke: #aecbfa;"/><path fill="gray" stroke="gray" stroke-width="0px" stroke-linecap="round" shape-rendering="geometricPrecision" d="M 136 88 m -24 0 a 24 24 0 1 0 48 0 a 24 24 0 1 0 -48 0" style="fill: #000000; stroke: #000000;"/><path fill="gray" stroke="gray" stroke-width="0px" stroke-linecap="round" shape-rendering="geometricPrecision" d="M 136 148 m -28 0 a 28 28 0 1 0 56 0 a 28 28 0 1 0 -56 0" style="fill: #669df6; stroke: #669df6;"/><path fill="gray" stroke="gray" stroke-width="0px" stroke-linecap="round" shape-rendering="geometricPrecision" d="M 56 64 m -48 0 a 48 48 0 1 0 96 0 a 48 48 0 1 0 -96 0" style="fill: #1967d2; stroke: #1967d2;"/></svg>
