<?xml version="1.0" encoding="UTF-8" standalone="no"?>
<svg
   width="192"
   height="192"
   viewBox="0 0 192 192"
   fill="none"
   version="1.1"
   id="svg13"
   sodipodi:docname="os_system_app_icon.svg"
   inkscape:version="1.1.2 (0a00cf5339, 2022-02-04)"
   xmlns:inkscape="http://www.inkscape.org/namespaces/inkscape"
   xmlns:sodipodi="http://sodipodi.sourceforge.net/DTD/sodipodi-0.dtd"
   xmlns="http://www.w3.org/2000/svg"
   xmlns:svg="http://www.w3.org/2000/svg">
  <defs
     id="defs17" />
  <sodipodi:namedview
     id="namedview15"
     pagecolor="#ffffff"
     bordercolor="#666666"
     borderopacity="1.0"
     inkscape:pageshadow="2"
     inkscape:pageopacity="0.0"
     inkscape:pagecheckerboard="0"
     showgrid="false"
     inkscape:zoom="4.3958333"
     inkscape:cx="95.886256"
     inkscape:cy="96.113744"
     inkscape:window-width="1856"
     inkscape:window-height="1016"
     inkscape:window-x="1744"
     inkscape:window-y="27"
     inkscape:window-maximized="1"
     inkscape:current-layer="svg13" />
  <mask
     id="a"
     style="mask-type:alpha"
     maskUnits="userSpaceOnUse"
     x="8"
     y="8"
     width="176"
     height="176">
    <circle
       cx="96"
       cy="96"
       r="88"
       fill="#C4C4C4"
       id="circle2" />
  </mask>
  <g
     mask="url(#a)"
     id="g7">
    <path
       fill="#5F6368"
       d="M0 0h192v192H0z"
       id="path5" />
  </g>
  <path
     d="m97.05 46 43.301 25v50L97.05 146l-43.301-25V71L97.05 46z"
     stroke="#87FFC5"
     stroke-width="3"
     stroke-linecap="round"
     stroke-linejoin="round"
     id="path9" />
  <path
     d="M140.35 71v50l-43.3 25V96l43.3-25zm-86.7 0 43.301 25 .001 49.999-43.301-25L53.65 71z"
     stroke="#87FFC5"
     stroke-width="3"
     stroke-linecap="round"
     stroke-linejoin="round"
     id="path11" />
  <path
     style="fill:#ff0000;stroke-width:0.227488"
     d="m 96.500638,147.27272 c -0.287682,-0.10739 -3.154033,-1.7183 -6.369669,-3.5798 -10.512511,-6.08558 -26.208079,-15.14303 -31.780258,-18.33946 -3.002844,-1.72255 -5.587678,-3.29303 -5.744076,-3.48996 -0.223655,-0.28161 -0.28436,-5.78398 -0.28436,-25.774629 0,-13.979125 0.06396,-25.583266 0.142132,-25.786979 0.07817,-0.203716 0.615614,-0.611839 1.194313,-0.906941 0.578699,-0.295102 10.460951,-5.971869 21.960557,-12.615038 11.499608,-6.64317 21.143322,-12.078491 21.430472,-12.078491 0.494131,0 43.434151,24.579278 44.277261,25.344728 0.37464,0.340129 0.39811,1.867398 0.39811,25.91037 0,20.10029 -0.0607,25.62379 -0.28436,25.89993 -0.1564,0.19305 -2.33176,1.52947 -4.83412,2.96983 -6.43706,3.70515 -9.36063,5.3912 -18.65403,10.75796 -4.50427,2.60112 -10.8312,6.25442 -14.05984,8.11845 -3.22865,1.86402 -6.095004,3.47377 -6.369673,3.57721 -0.274669,0.10345 -0.734778,0.10022 -1.022459,-0.007 z M 95.14896,96.615917 C 94.609597,96.219262 55.842282,73.846949 55.400648,73.677477 c -0.311624,-0.119581 -0.348515,2.322072 -0.348515,23.066539 0,20.804424 0.03688,23.230884 0.357147,23.496684 0.196431,0.16302 9.281739,5.44626 20.189573,11.74054 l 19.832427,11.44414 0.05875,-23.25771 C 95.54551,98.203489 95.52655,96.893598 95.148959,96.615917 Z m 23.78824,35.106813 20.05806,-11.59481 V 96.860167 c 0,-12.797262 -0.0821,-23.26775 -0.18237,-23.26775 -0.10031,0 -9.18562,5.197765 -20.18958,11.55059 L 98.616114,96.6936 98.55817,120.08175 c -0.03187,12.86349 0.02731,23.35387 0.131513,23.31197 0.104201,-0.0419 9.215577,-5.29385 20.247517,-11.67099 z m -1.69422,-48.975525 c 10.99549,-6.348879 19.9718,-11.645783 19.94737,-11.770902 -0.0358,-0.183487 -38.084832,-22.333067 -39.722087,-23.123537 -0.393156,-0.189817 -3.598765,1.583995 -20.653861,11.42874 -13.148091,7.589497 -20.11093,11.73097 -19.96612,11.875782 0.414431,0.414429 39.718016,23.087707 40.061671,23.110599 0.187677,0.01249 9.337537,-5.171807 20.333027,-11.520682 z"
     id="path93" />
</svg>
