<svg version="1.1" xmlns="http://www.w3.org/2000/svg" width="512px" height="512px"><path d="M498.7150879,413.2712402c0,0-98.3428955-95.1925049-177.9476929-173.2883911L506.7340088,67.7247314c8.9537354-17.7424316-0.0484619-24.1221924-16.4802856-18.4585571L296.9016724,216.5257568c-36.4772949-35.928894-65.5756226-64.9904175-73.5471191-73.9995728c-15.9691772-18.0479736-48.1008911-45.1053467-23.8970947-67.2606201c60.5420532-55.4180298,107.0683594-1.5356445,124.2753296-43.0247803C234.1812134-11.965271,160.3642578,15.4650269,126.5301514,45.9962769c-46.0751953,41.5772705-21.0645752,57.6738281-50.2518921,82.7003784c-18.6685791,16.0073242-38.0657349-7.8671265-54.1780396-1.0921631L1.4401245,147.9460449c-12.4927368,17.8180542,59.8226929,93.3890381,80.6610107,85.0454102l28.8708496-28.0487061c3.9292603-9.5489502-25.6387939-18.1022339,6.1389771-42.609314c11.6193237-8.9608765,18.7177124-20.1756592,31.5023193-19.2128906c22.3947754,1.6865234,26.2097168,5.4786987,49.0386963,25.2755737c21.4542236,19.6502075,45.5449219,44.0674438,71.604248,72.0443726L138.4470825,353.597229c-30.536438-22.114563-26.6681519-39.4437256,22.3959961-80.2473145c32.7103271-27.203125,42.2232666-73.673584,18.5636597-74.0410156c-26.0720215,8.8418579,9.6903687,17.8064575-53.3374634,67.1070557c-59.6954346,46.6939697-40.5065918,82.463562-16.6324463,106.5540161L6.7611084,466.8493042l32.7745361,36.0344849l104.0244751-95.1065063c56.2424927,59.8810425,80.5119019,21.8967285,139.4002686-41.303833c14.3709717-15.4234009,24.868042,7.6157837,38.4962769-7.2070312c9.2070923-18.8258057-18.9866943-34.7593994-44.6998901-22.5336914c-25.7131348,12.225769-48.9457397,52.6108398-75.9219971,67.8604736c-8.0419922,4.5461426-22.0863037-4.7166138-33.885376-22.1310425L292.704895,265.9766846c50.4170532,55.6282349,106.9567261,122.3269653,165.3932495,192.4556274c8.3012085,13.4569092,16.6536865,25.6740112,25.9559937,14.9344482l26.3275146-28.1757202C514.4334717,436.6369629,510.9968872,426.1157837,498.7150879,413.2712402z" fill="#C9D1D9"/></svg>
