/* XPM */
static char * product_logo_32_xpm[] = {
"32 32 66 1",
" 	c None",
".	c #1967D2",
"+	c #2F71D8",
"@	c #1865CE",
"#	c #1458B5",
"$	c #1251A7",
"%	c #436DBC",
"&	c #6F94DE",
"*	c #7499E3",
"=	c #80A3E7",
"-	c #568FEB",
";	c #0E4591",
">	c #01112D",
",	c #000000",
"'	c #232B37",
")	c #788CAE",
"!	c #ABC7F6",
"~	c #AECBFA",
"{	c #669DF6",
"]	c #3877DB",
"^	c #1761C6",
"/	c #04285A",
"(	c #011432",
"_	c #0E4EA1",
":	c #176AD7",
"<	c #1A73E8",
"[	c #4A576D",
"}	c #A4C0EC",
"|	c #5E96F1",
"1	c #062A5B",
"2	c #042758",
"3	c #186CDB",
"4	c #4580E1",
"5	c #629AF3",
"6	c #266DD5",
"7	c #4F89E7",
"8	c #1859B6",
"9	c #9AB4DD",
"0	c #3072D8",
"a	c #8AA1C7",
"b	c #5890ED",
"c	c #3A6EC3",
"d	c #96AFD8",
"e	c #5E95EE",
"f	c #101F36",
"g	c #446BAB",
"h	c #649AF2",
"i	c #29426B",
"j	c #3B4D6C",
"k	c #6094E9",
"l	c #28426B",
"m	c #2A436B",
"n	c #93B3EB",
"o	c #77A5F2",
"p	c #5787D5",
"q	c #507CC4",
"r	c #5988D6",
"s	c #A0C1F9",
"t	c #86AFF7",
"u	c #6A9FF6",
"v	c #A7C6FA",
"w	c #8EB5F8",
"x	c #72A3F6",
"y	c #ACC9FA",
"z	c #99BCF9",
"A	c #7CAAF7",
"                                ",
"             ......             ",
"          ............          ",
"        ................        ",
"       ..................       ",
"      ....................      ",
"     ......................     ",
"    ........................    ",
"   +.........@#$$%&*********=   ",
"   -.......@;>,,,,')!~~~~~~~~   ",
"  {{].....^/(_:<<:_([}~~~~~~~~  ",
"  {{|....@123<<<<<<32[!~~~~~~~  ",
"  {{{4...;(3<<<<<<<<3()~~~~~~~  ",
" {{{{56.@>_<<<<<<<<<<_'!~~~~~~~ ",
" {{{{{7.8,:<<<<<<<<<<:,9~~~~~~~ ",
" {{{{{{0$,<<<<<<<<<<<<,a~~~~~~~ ",
" {{{{{{b$,<<<<<<<<<<<<,a~~~~~~~ ",
" {{{{{{{c,:<<<<<<<<<<:,d~~~~~~~ ",
" {{{{{{{ef_<<<<<<<<<<_'!~~~~~~~ ",
"  {{{{{{{g(3<<<<<<<<3()~~~~~~~  ",
"  {{{{{{{hi23<<<<<<32j!~~~~~~~  ",
"  {{{{{{{{kl(_:<<:_(mn~~~~~~~~  ",
"   {{{{{{{{hgf,,,,fgo~~~~~~~~   ",
"   {{{{{{{{{{hpqqrh{s~~~~~~~~   ",
"    {{{{{{{{{{{{{{{t~~~~~~~~    ",
"     {{{{{{{{{{{{{uv~~~~~~~     ",
"      {{{{{{{{{{{{w~~~~~~~      ",
"       {{{{{{{{{{xy~~~~~~       ",
"        {{{{{{{{{z~~~~~~        ",
"          {{{{{{A~~~~~          ",
"             {{{s~~             ",
"                                "};
