<?xml version="1.0" encoding="UTF-8" standalone="no"?>
<svg
   viewBox="0 0 256 256"
   fill="none"
   version="1.1"
   id="svg6"
   sodipodi:docname="thorium.svg"
   inkscape:version="1.3 (0e150ed6c4, 2023-07-21)"
   xmlns:inkscape="http://www.inkscape.org/namespaces/inkscape"
   xmlns:sodipodi="http://sodipodi.sourceforge.net/DTD/sodipodi-0.dtd"
   xmlns="http://www.w3.org/2000/svg"
   xmlns:svg="http://www.w3.org/2000/svg">
  <sodipodi:namedview
     id="namedview6"
     pagecolor="#505050"
     bordercolor="#eeeeee"
     borderopacity="1"
     inkscape:showpageshadow="0"
     inkscape:pageopacity="0"
     inkscape:pagecheckerboard="0"
     inkscape:deskcolor="#505050"
     inkscape:zoom="4.6132812"
     inkscape:cx="127.89162"
     inkscape:cy="128"
     inkscape:window-width="2560"
     inkscape:window-height="1377"
     inkscape:window-x="-8"
     inkscape:window-y="-8"
     inkscape:window-maximized="1"
     inkscape:current-layer="svg6" />
  <g
     clip-path="url(#a)"
     id="g5">
    <path
       d="M128 191.995c35.346 0 64-28.654 64-64 0-35.347-28.654-64-64-64-35.346 0-64 28.654-64 64 0 35.346 28.654 64 64 64Z"
       fill="#000"
       id="path1"
       style="fill:#0d0d0d;fill-opacity:1" />
    <path
       d="M96.01 183.41a63.681 63.681 0 0 1-23.42-23.43l-.007.004-55.425-96a128.027 128.027 0 0 0 110.841 192.018l55.436-96.018a63.985 63.985 0 0 1-16.465 18.775 64.007 64.007 0 0 1-70.96 4.651Z"
       fill="#669DF6"
       id="path2"
       style="fill:#09419e;fill-opacity:1" />
    <path
       d="M191.991 127.984a63.683 63.683 0 0 1-8.581 31.996l.007.004-55.426 96a128.029 128.029 0 0 0 110.872-192H127.991a64 64 0 0 1 64 64Z"
       fill="#AECBFA"
       id="path3"
       style="fill:#285ac6;fill-opacity:1" />
    <path
       d="M128 180c28.719 0 52-23.281 52-52s-23.281-52-52-52-52 23.281-52 52 23.281 52 52 52Z"
       fill="#1A73E8"
       id="path4" />
    <path
       d="M95.99 72.59a63.684 63.684 0 0 1 32.001-8.566v-.008h110.851A128.035 128.035 0 0 0 127.991.026 128.028 128.028 0 0 0 17.13 63.999l55.436 96.018a64.003 64.003 0 0 1 4.65-70.961A64 64 0 0 1 95.991 72.59Z"
       fill="#1967D2"
       id="path5"
       style="fill:#0e2040;fill-opacity:1" />
  </g>
  <defs
     id="defs6">
    <clipPath
       id="a">
      <path
         fill="#000"
         d="M0 0h256v256H0z"
         id="path6" />
    </clipPath>
  </defs>
</svg>
