<?xml version="1.0" encoding="UTF-8"?> <!-- Generator: Adobe Illustrator 24.2.2, SVG Export Plug-In . SVG Version: 6.00 Build 0) --> <svg xmlns="http://www.w3.org/2000/svg" xmlns:xlink="http://www.w3.org/1999/xlink" version="1.1" id="Layer_1" x="0px" y="0px" viewBox="0 0 423.2 245.1" style="enable-background:new 0 0 423.2 245.1;" xml:space="preserve"> <style type="text/css"> .st0{fill:#3C88C4;} .st1{fill:url(#SVGID_1_);} .st2{fill:url(#SVGID_2_);} .st3{fill:#F5B05B;} .st4{fill:#F0781F;} .st5{opacity:0.4;} .st6{fill:#F5E38B;} .st7{fill:url(#SVGID_3_);} .st8{fill:#9E9E9E;} .st9{fill:#DDDDDD;} .st10{fill:#9C948D;} .st11{fill:#FFFFFF;} .st12{fill:#545C72;} .st13{fill:#757574;} .st14{fill:#EFEFEF;} .st15{fill:#C45353;} .st16{fill:#4B4B4B;} .st17{fill:#74B1BE;} .st18{fill:#3367D6;} .st19{fill:#5E97F6;} .st20{fill:#A1C2FA;} .st21{fill:#93B2ED;} .st22{fill:#578BEA;} .st23{fill:#3060CD;} .st24{fill:#F5F5F5;} .st25{fill:#4285F4;} </style> <g> <g> <path class="st0" d="M9,86.7c22-13.3,41.1-27.4,55.4-42.8c14.3,1.1,33.5-4,55.4-12.6l5.9,2.9l-8,60.2L9.1,108.5L9,86.7L9,86.7z"></path> <linearGradient id="SVGID_1_" gradientUnits="userSpaceOnUse" x1="357.227" y1="507.2018" x2="357.227" y2="606.9265" gradientTransform="matrix(-1 0 0 1 386.1772 -419.3099)"> <stop offset="0" style="stop-color:#2C5483"></stop> <stop offset="1" style="stop-color:#31497E"></stop> </linearGradient> <path class="st1" d="M34.4,197.7c-9.6-5.9-25.4-20-25.4-37.4V86.6l5.9,2.9l34.1,116.3L34.4,197.7z"></path> <linearGradient id="SVGID_2_" gradientUnits="userSpaceOnUse" x1="263.4712" y1="577.6234" x2="364.1232" y2="476.9714" gradientTransform="matrix(-1 0 0 1 386.1772 -419.3099)"> <stop offset="0" style="stop-color:#383877"></stop> <stop offset="0.3591" style="stop-color:#3D2D72"></stop> <stop offset="1" style="stop-color:#441C6B"></stop> </linearGradient> <path class="st2" d="M70.3,46.7c14.3,1.1,33.5-4,55.4-12.6v73.6c0,53.3-55.4,107.7-55.4,107.7s-55.4-18.2-55.4-52.3V89.6 C36.8,76.2,55.9,62.1,70.3,46.7z"></path> <path class="st3" d="M70.3,60.5c12.1,0.9,28.4-3.4,47-10.7v62.4c0,45.1-47,91.2-47,91.2s-47-15.4-47-44.3V96.8 C41.9,85.5,58.1,73.6,70.3,60.5z"></path> <path class="st4" d="M70.3,60.5c12.1,0.9,28.4-3.4,47-10.7v62.4c0,45.1-47,91.2-47,91.2V60.5z"></path> </g> <g class="st5"> <path class="st6" d="M23.3,96.8v14.3l83.2,41.6c6.2-12.7,10.6-26.7,10.6-40.6v-1.6L51.3,77.7C42.9,84.3,33.4,90.6,23.3,96.8z"></path> <path class="st6" d="M103.6,158.7l-80.2-40.1v21.8l70,35C96.8,170.3,100.3,164.7,103.6,158.7z"></path> </g> <linearGradient id="SVGID_3_" gradientUnits="userSpaceOnUse" x1="44.5777" y1="550.7774" x2="102.2088" y2="550.7774" gradientTransform="matrix(1 0 0 1 0 -419.3099)"> <stop offset="0" style="stop-color:#383877"></stop> <stop offset="0.3591" style="stop-color:#3D2D72"></stop> <stop offset="1" style="stop-color:#441C6B"></stop> </linearGradient> <polyline class="st7" points="92.6,95.5 63.9,145.4 54.2,139.8 44.6,156.5 63.9,167.4 102.2,101 92.6,95.5 "></polyline> </g> <path class="st8" d="M294.4,7l-5.6-3.5c-0.3-0.3-1.1-0.3-1.4,0l-79.7,46.3l-2.8-3.8l-5.4-2.9c-0.7-0.3-1.4-0.3-2.4,0.3l-65.9,38.1 c-1.1,0.7-2.4,2.1-2.8,3.5l-6,14l-14.3,8.4c-1.1,0.7-2.1,2.1-2.1,3.5l0.3,129.6c0,0.7,0.3,1.1,0.7,1.4l5.6,3.2 C112.2,244.9,294.4,7,294.4,7z"></path> <path class="st9" d="M292.7,7c1.1-0.7,2.1,0,2.1,1.1l0.3,129.6c0,1.4-1.1,2.8-2.1,3.5L114,244.5c-1.1,0.7-2.1,0-2.1-1.1l-0.3-129.6 c0-1.4,1.1-2.8,2.1-3.5l14.3-8.4l6-14c0.7-1.4,1.8-2.8,2.8-3.5l65.9-38.1c1.1-0.7,2.4-0.7,2.8,0.3l6,7.4L292.7,7z"></path> <path class="st10" d="M130.5,110.6c0.3-0.2,0.5-0.2,0.5-0.2l3.5,2.1c0,0,0.3,0,0,1.1l-3.5,6c0,0-0.4,0.8-1,0.7l-0.4-0.2 c0,0-0.5-0.1,0-1.2l1.4-2.8l-3.5,2.1c-0.9,0.4-0.7-0.5-0.7-1c0-0.3,0.3-0.9,0.7-1.1l3.5-2.1l-1.4-0.7c0,0-0.3-0.1-0.1-1.1 C129.5,112.2,129.6,111.4,130.5,110.6z"></path> <path class="st10" d="M120.3,116.7c0.3,0,0.6,0.2,0.6,0.2s0.5,0.2,0,1.2l-1.4,2.8l3.5-2.1c0.9-0.4,0.7,0.5,0.7,1 c0,0.3,0,0.8-0.7,1.1l-3.5,2.1l1.4,1.1c0.3,0,0.1,2.5-1.4,2.5l-3.5-2.1c0,0-0.3,0,0-1.1l3.5-6C120,116.7,120.3,116.7,120.3,116.7z"></path> <path class="st11" d="M285,17.9c0.7-0.3,1.1,0,1.1,0.7v14c0,0.7-0.3,1.4-1.1,1.8l-144.4,83.3c-0.7,0.3-1.1,0-1.1-0.7v-14 c0-0.7,0.3-1.4,1.1-1.8L285,17.9z"></path> <polygon class="st12" points="290.9,37.5 291.3,138.4 115.7,239.7 115.4,139.1 "></polygon> <path class="st13" d="M418.6,0.2c-0.7-0.3-1.3-0.3-2.3,0.3L254,94.1c-2,0.9-3.2,3.6-3.2,5.4l0.7,126.6c0,0.9,0.3,1.6,0.9,2l3,1.9 L421.7,2L418.6,0.2z"></path> <path class="st14" d="M419.3,2.2c2-0.9,3.2-0.3,3.2,2l0.7,126.6c0,2-1.3,4.5-3.2,5.4l-162.4,93.5c-2,0.9-3.2,0.3-3.2-2l-0.7-126.6 c0-2,1.3-4.5,3.2-5.4L419.3,2.2z"></path> <path class="st12" d="M257.2,125l161.7-93.2l0.3,100.9l-161.7,93.2L257.2,125z"></path> <polygon class="st15" points="419.3,2.2 419.3,21.5 395.5,35.3 395.5,15.9 "></polygon> <path class="st16" d="M389.1,24.7L374,33.4v12.9l15.1-8.7V24.7z M375.6,44v-8.1l11.9-6.8v8.1L375.6,44z"></path> <path class="st11" d="M404.5,16.6l-0.7,1.3l7.4,4.3l0.7-1.3L404.5,16.6z"></path> <polyline class="st11" points="410.9,13 403.8,25.3 404.5,25.6 411.6,13.4 410.9,13 "></polyline> <g> <path class="st17" d="M311.7,164.4c0-1.6,1-3.2,2.2-4c1.2-0.7,2.2-0.2,2.2,1.3c0,1.6-1,3.2-2.2,4 C312.7,166.4,311.7,165.9,311.7,164.4 M345.5,104.4c-0.1,0-0.2,0.1-0.2,0.2c-4.7,4-9.6,9.2-14.7,15.9l0,0 c-8.6,11.4-19,27.2-19.1,39.9c-0.2,0.3-0.4,0.6-0.5,0.9c-0.8,1.4-1.2,2.9-1.2,4.3l0,0c0,1.4,0.5,2.4,1.2,2.8 c2.1,1.2,4.8-1.5,5.9-3.5c1.1-2.1,2.1-5.8,0-7.1c-0.8-0.5-1.8-0.4-3,0.3c-0.2,0.1-0.3,0.2-0.5,0.3c0.8-11.6,9.9-25.7,18.1-36.5l0,0 l0,0c4.9-6.4,9.6-11.4,14.1-15.3c0.6-0.5,0.9-1.3,0.8-1.9C346.3,104.3,345.9,104.1,345.5,104.4"></path> <path class="st17" d="M338.1,100.3c-1.2,0.7-2.1,0.2-2.2-1.3c-0.1-1.5,1-3.2,2.2-4c1.2-0.7,2.1-0.2,2.2,1.3 C340.3,97.9,339.3,99.5,338.1,100.3 M338,92.6c-2.3,1.4-4.2,4.7-4.2,7.5s1.9,3.8,4.2,2.5l0,0l0,0c1.6-1,3.1-2.9,3.7-4.8 c7.7,1.5,9.5,15.9,9.6,25.4c0,6.6-0.8,12.9-2.1,18.8c-0.3,0.9,0.3,1.3,1,1c0.4-0.3,0.8-0.8,1-1.4c1.4-6.2,2.2-12.8,2.2-19.6 c0-10.1-2.2-26.1-11.2-27C342.1,92.1,340.5,91.2,338,92.6"></path> <path class="st17" d="M338.2,127.7c-0.2,0.1-0.5,0.3-0.7,0.5c-1.6,1.4-2.6,3.7-2.2,5.4c0.4,1.4,1.4,1.9,2.7,1.1 c0.2-0.1,0.5-0.3,0.7-0.5c1.6-1.2,2.6-3.7,2.2-5.4C340.6,127.4,339.6,127,338.2,127.7"></path> <path class="st17" d="M352.4,99.3c-1,0.3-1.5,3.1,0,2.4c2.3-1.4,4.3-2.1,5.9-2.3c8.7-0.2,2.8,14.3-0.8,21.6 c-0.4,0.7-0.3,1.4,0.1,1.6c0.6,0.2,1.1-0.4,1.4-1c3.6-7.3,5.7-13.8,5.7-18.5C364.9,94.9,357.6,95.9,352.4,99.3"></path> <path class="st17" d="M324.2,116.1c-6.6,4-12.5,10.8-12.6,18.9c0,3,1,5.7,2.6,7.9c0.3,0.4,1.1,0.1,1.3-0.4c0.5-0.6,0.6-1.4,0.3-1.8 c-2.5-3.3-2.9-7.6-1.4-11.5l0,0c2.6-6.4,8.8-11.1,15.2-13.4c0.5-0.3,0.9-0.9,1-1.6s-0.3-1.1-0.8-0.9 C327.8,114.2,326,115.1,324.2,116.1"></path> <path class="st17" d="M326.8,156.8c-0.1,0.1-0.2,0.2-0.4,0.3c-0.5,0.5-0.8,1.4-0.6,1.9c1.3,3.6,3.1,6.2,5.2,7.6 c2.1,1.3,4.6,1.4,7.3-0.2c1.9-1.2,3.7-3.1,5.4-5.6c0.2-0.2,6.9-11.5,3.7-10.2c-0.3,0.2-0.7,0.6-0.9,1.1c-2,5.1-4.4,9.8-8.3,12.3 c-5.2,2.9-8.4-1.4-10.6-6.9C327.5,156.6,327.2,156.5,326.8,156.8"></path> <path class="st17" d="M365.2,128.6c-4-1.8-8.7,6.4-6.7,9.9c-8.6,10.4-27.7,14.1-38.9,6.2c-0.1,0.1-0.4,0.1-0.7,0.3 c-0.8,0.3-1.3,2-0.7,2.4c12.5,8.4,32.4,4,41.8-7.8C364.2,140.1,368.8,131.3,365.2,128.6z M363.9,134.8c-0.6,1.2-1.9,2.6-3.1,2 c-2-1.5,0.9-6.6,3.1-5.7C364.9,131.8,364.7,133.6,363.9,134.8z"></path> </g> <g> <path class="st18" d="M203.2,103.7c-11,6.4-20.7,18.6-26.2,31.6l12.7,7.3l41.4-35.4C225.9,98.6,215.3,96.8,203.2,103.7z"></path> <path class="st19" d="M177,135.4c-3.2,7.4-5,15.1-4.9,22.3c0.1,19.3,13.3,27.3,29.9,18.7l4.6-22.6"></path> <path class="st20" d="M213.8,122.6l-11.9,53.7c0.5-0.3,1-0.5,1.4-0.8c17.2-10,31.2-34.1,31.1-53.9c0-5.8-1.2-10.7-3.4-14.4"></path> <polyline class="st21" points="203.3,123.3 213.8,122.6 231.1,107.3 "></polyline> <polyline class="st22" points="206.5,153.7 201.9,176.4 215.3,141.5 "></polyline> <polyline class="st23" points="190.7,154.4 189.7,142.6 177,135.4 "></polyline> <path class="st24" d="M203.3,123.3c-6.4,3.7-11.8,11.7-13.5,19.3c-0.4,1.7-0.6,3.4-0.6,5.2c0,2.7,0.6,5,1.6,6.6l0,0 c2.4,3.8,7.2,4.7,12.6,1.5c1.1-0.7,2.1-1.3,3.2-2.2c3.7-3.1,6.8-7.6,8.8-12.3c1.3-3.4,2.2-6.8,2.2-10c0-4.2-1.4-7.3-3.7-8.8 C211.1,120.8,207.4,120.9,203.3,123.3"></path> <path class="st25" d="M203.3,126.5c-6.4,3.7-11.3,12.5-11.3,19.7s5.1,10.2,11.4,6.5c6.2-3.6,11.3-12.4,11.3-19.6 S209.6,123,203.3,126.5"></path> </g> </svg> 