<?xml version="1.0" encoding="UTF-8"?>
<svg xmlns="http://www.w3.org/2000/svg" xmlns:xlink="http://www.w3.org/1999/xlink" width="3000" height="3000" viewBox="0 0 3000 3000">
<rect x="-300" y="-300" width="3600" height="3600" fill="none" fill-opacity="1"/>
<path fill="none" stroke-width="425.197" stroke-linecap="round" stroke-linejoin="round" stroke="#1967D2" stroke-opacity="1" stroke-miterlimit="5" d="M 9669.6875 23144.414062 C 8575.78125 23144.414062 7695.15625 22263.789062 7695.15625 21169.882812 L 7695.15625 13418.085938 C 7695.15625 12324.21875 8575.78125 11443.59375 9669.6875 11443.59375 L 10504.101562 11443.59375 L 10504.101562 9253.59375 C 10504.101562 9011.445312 10650 8793.203125 10873.789062 8700.585938 C 11097.5 8607.96875 11355 8659.296875 11526.09375 8830.585938 L 14136.484375 11443.59375 L 22130.3125 11443.59375 C 23224.21875 11443.59375 24104.804688 12324.21875 24104.804688 13418.085938 L 24104.804688 21169.882812 C 24104.804688 22263.789062 23224.21875 23144.414062 22130.3125 23144.414062 Z M 9669.6875 23144.414062 " transform="matrix(0.1, 0, 0, -0.1, 0, 3000)"/>
<path fill-rule="nonzero" fill="none" fill-opacity="1" d="M 786.96875 865.539062 C 677.578125 865.539062 589.511719 953.609375 589.511719 1063 L 589.511719 1838.171875 C 589.511719 1947.558594 677.578125 2035.625 786.96875 2035.625 L 870.414062 2035.625 L 870.414062 2254.621094 C 870.414062 2278.835938 885.003906 2300.664062 907.375 2309.925781 C 929.746094 2319.183594 955.496094 2314.054688 972.609375 2296.925781 L 1233.648438 2035.625 L 2033.03125 2035.625 C 2142.421875 2035.625 2230.480469 1947.558594 2230.480469 1838.171875 L 2230.480469 1063 C 2230.480469 953.609375 2142.421875 865.539062 2033.03125 865.539062 Z M 786.96875 865.539062 "/>
<path fill-rule="nonzero" fill="#1967D2" fill-opacity="1" d="M 786.964844 844.28125 C 666.167969 844.28125 568.253906 942.199219 568.253906 1063 L 568.253906 1838.171875 C 568.253906 1958.96875 666.167969 2056.882812 786.964844 2056.882812 L 849.15625 2056.882812 L 849.15625 2254.625 C 849.15625 2289.859375 871.253906 2317.984375 899.246094 2329.570312 C 927.234375 2341.15625 962.746094 2336.882812 987.648438 2311.953125 L 1242.460938 2056.882812 L 2033.03125 2056.882812 C 2153.828125 2056.882812 2251.738281 1958.96875 2251.738281 1838.171875 L 2251.738281 1063 C 2251.738281 942.199219 2153.828125 844.28125 2033.03125 844.28125 Z M 786.964844 886.800781 L 2033.03125 886.800781 C 2131.011719 886.800781 2209.21875 965.019531 2209.21875 1063 L 2209.21875 1838.171875 C 2209.21875 1936.148438 2131.011719 2014.363281 2033.03125 2014.363281 L 1233.648438 2014.363281 C 1228.011719 2014.367188 1222.601562 2016.609375 1218.609375 2020.597656 L 957.566406 2281.902344 C 944.773438 2294.703125 929.1875 2295.945312 915.503906 2290.28125 C 901.824219 2284.621094 891.675781 2272.722656 891.675781 2254.625 L 891.675781 2035.625 C 891.675781 2023.882812 882.15625 2014.367188 870.417969 2014.363281 L 786.964844 2014.363281 C 688.988281 2014.363281 610.773438 1936.148438 610.773438 1838.171875 L 610.773438 1063 C 610.773438 965.019531 688.988281 886.800781 786.964844 886.800781 Z M 786.964844 886.800781 "/>
<path fill-rule="nonzero" fill="#000" fill-opacity="1" d="M 819.886719 1213.011719 L 1129.539062 1213.011719 L 1129.539062 1289.761719 L 910.558594 1289.761719 L 910.558594 1390.210938 L 1102.269531 1390.210938 L 1102.269531 1466.070312 L 910.558594 1466.070312 L 910.558594 1649.191406 L 819.886719 1649.191406 Z M 819.886719 1213.011719 "/>
<path fill-rule="nonzero" fill="#000" fill-opacity="1" d="M 1276.808594 1484.140625 L 1387.628906 1484.140625 L 1333.109375 1312.28125 Z M 1282.429688 1212.421875 L 1385.558594 1212.421875 L 1540.230469 1649.191406 L 1441.261719 1649.191406 L 1413.109375 1559.410156 L 1252.210938 1559.410156 L 1221.988281 1649.191406 L 1126.570312 1649.191406 Z M 1282.429688 1212.421875 "/>
<path fill-rule="nonzero" fill="#000" fill-opacity="1" d="M 1787.949219 1584 C 1798.421875 1584 1808.5 1582.710938 1818.179688 1580.148438 C 1823.511719 1578.769531 1830.320312 1576.300781 1838.621094 1572.738281 L 1794.46875 1530.660156 L 1841.578125 1481.46875 L 1885.730469 1523.550781 C 1892.648438 1509.328125 1897.488281 1496.878906 1900.25 1486.210938 C 1904.601562 1470.210938 1906.769531 1451.550781 1906.769531 1430.210938 C 1906.769531 1381.21875 1896.699219 1343.390625 1876.550781 1316.71875 C 1856.601562 1289.859375 1827.359375 1276.421875 1788.839844 1276.421875 C 1752.691406 1276.421875 1723.851562 1289.269531 1702.320312 1314.941406 C 1680.78125 1340.621094 1670.019531 1379.050781 1670.019531 1430.210938 C 1670.019531 1490.070312 1685.429688 1532.929688 1716.238281 1558.808594 C 1736.191406 1575.609375 1760.101562 1584 1787.949219 1584 Z M 1998.039062 1423.691406 C 1998.039062 1462.609375 1993.300781 1495.199219 1983.820312 1521.480469 C 1976.109375 1546.570312 1964.75 1567.410156 1949.738281 1584 L 2000.109375 1631.109375 L 1952.410156 1680.890625 L 1899.660156 1631.109375 C 1883.660156 1640.789062 1869.828125 1647.609375 1858.179688 1651.558594 C 1838.621094 1658.078125 1815.210938 1661.339844 1787.949219 1661.339844 C 1731.058594 1661.339844 1684.039062 1644.351562 1646.898438 1610.371094 C 1601.859375 1569.480469 1579.339844 1509.429688 1579.339844 1430.210938 C 1579.339844 1350.398438 1602.460938 1290.058594 1648.679688 1249.160156 C 1686.410156 1215.78125 1733.328125 1199.089844 1789.429688 1199.089844 C 1845.929688 1199.089844 1893.339844 1216.769531 1931.660156 1252.121094 C 1975.910156 1293.019531 1998.039062 1350.210938 1998.039062 1423.691406 Z M 1998.039062 1423.691406 "/>
</svg>
