<?xml version="1.0" encoding="UTF-8" standalone="no"?><!-- Generator: Gravit.io --><svg xmlns="http://www.w3.org/2000/svg" xmlns:xlink="http://www.w3.org/1999/xlink" style="isolation:isolate" viewBox="0 0 48 48" width="48pt" height="48pt"><linearGradient id="_lgradient_4" x1="0" y1="0.5" x2="1.0000000000000002" y2="0.5" gradientTransform="matrix(46,0,0,46,1,1)" gradientUnits="userSpaceOnUse"><stop offset="0%" stop-opacity="1" style="stop-color:rgb(0,255,216)"/><stop offset="98.26086956521739%" stop-opacity="1" style="stop-color:rgb(0,255,184)"/></linearGradient><path d=" M 1 24 C 1 11.306 11.306 1 24 1 C 27.247 1 30.337 1.674 33.139 2.89 C 35.453 3.894 41.154 1.331 43 3 C 44.799 4.626 42.786 9.882 44 12 C 45.928 15.364 47 19.848 47 24 C 47 36.694 36.694 47 24 47 C 11.306 47 1 36.694 1 24 Z  M 6 24 C 6 19.23 7.9 14.65 11.27 11.27 C 14.65 7.9 19.23 6 24 6 C 28.77 6 33.35 7.9 36.73 11.27 C 40.1 14.65 42 19.23 42 24 L 42 24 C 42 28.77 40.1 33.35 36.73 36.73 C 33.35 40.1 28.77 42 24 42 L 24 42 C 19.23 42 14.65 40.1 11.27 36.73 C 7.9 33.35 6 28.77 6 24 Z " fill-rule="evenodd" fill="url(#_lgradient_4)"/><linearGradient id="_lgradient_5" x1="0" y1="0.5" x2="0.9074880558539661" y2="0.9200778838291643" gradientTransform="matrix(33,0,0,33,7.5,7.5)" gradientUnits="userSpaceOnUse"><stop offset="0%" stop-opacity="1" style="stop-color:rgb(0,196,255)"/><stop offset="83.88839793817618%" stop-opacity="1" style="stop-color:rgb(0,114,255)"/></linearGradient><path d=" M 7.5 24 C 7.5 14.893 14.893 7.5 24 7.5 C 33.107 7.5 40.5 14.893 40.5 24 C 40.5 33.107 33.107 40.5 24 40.5 C 14.893 40.5 7.5 33.107 7.5 24 Z  M 12.5 24 C 12.5 20.95 13.71 18.02 15.87 15.87 C 18.02 13.71 20.95 12.5 24 12.5 C 27.05 12.5 29.98 13.71 32.13 15.87 C 34.29 18.02 35.5 20.95 35.5 24 C 35.5 27.05 34.29 29.98 32.13 32.13 C 29.98 34.29 27.05 35.5 24 35.5 C 20.95 35.5 18.02 34.29 15.87 32.13 C 13.71 29.98 12.5 27.05 12.5 24 Z " fill-rule="evenodd" fill="url(#_lgradient_5)"/></svg>