<?xml version="1.0" encoding="UTF-8"?> <!-- Generator: Adobe Illustrator 24.2.2, SVG Export Plug-In . SVG Version: 6.00 Build 0) --> <svg xmlns="http://www.w3.org/2000/svg" xmlns:xlink="http://www.w3.org/1999/xlink" version="1.1" id="Layer_1" x="0px" y="0px" viewBox="0 0 360 220" style="enable-background:new 0 0 360 220;" xml:space="preserve"> <style type="text/css"> #cert { transform-origin: 129.3px 125px; transform: skewY(-30deg); animation: 8s cubic-bezier(0.68, -0.6, 0.32, 1.6) infinite move; } @keyframes move { 0% { transform: translateY(205px); } 25%, 75% {transform: translateY(0px);} 100% { transform: translateY(-195px); } } #second { transform-origin: 129.3px 125px; transform: skewY(-30deg); animation: 8s ease-in-out 2.1s infinite spin; } @keyframes spin { 0% { transform: skewY(-30deg) rotate(0deg); } 15%, 100% { transform: skewY(-30deg) rotate(360deg); } } #line1 {animation: 8s ease-out 2.1s infinite linemove;} #line2 {animation: 8s ease-out 2.2s infinite linemove;} @keyframes linemove { 0% { transform: translate(0px, 0px); } 8%, 80% { transform: translate(42.5px, -24.5px); } 81%, 100% { transform: translate(0px, 0px); } } #gold { transform-origin: 250.8px 103.4px; animation: 8s ease-out 3s infinite both grow; visibility: hidden; } @keyframes grow { 0% { transform: scale(0); } 5%, 70% {transform: scale(1); visibility: visible;} 71%, 100% { transform: scale(0); visibility: hidden; } } #glow { transform-origin: 250.8px 103.4px; animation: 8s ease-out 2.9s infinite both glowgrow; } @keyframes glowgrow { 0% { transform: scale(0); opacity:1;} 5%, 100% {transform: scale(1.5); opacity:0;} } #ribbon { animation: 8s ease-out 3.3s infinite forwards ribbondown; visibility: hidden; } @keyframes ribbondown { 0% { transform: translateY(-17px); visibility: visible;} 5%, 69% {transform: translateY(0px); } 70%, 100% { transform: translateY(-17px); visibility: hidden; } } .st0{fill:#737373;} .st1{fill:#979797;} .st2{fill:#FFFFFF;} .st3{fill:#656565;} .st4{fill:#B1B1B1;} .st5{fill:#828282;} .st6{fill:#6F6F6F;} .st7{fill:#7D7D7D;} .st8{fill:#B0B0B0;} .st9{fill:#E4E4E4;} .st10{fill:#AEAEAE;} .st11{fill:#757575;} .st12{fill:#898989;} .st13{fill:#A6A6A6;} .st14{fill:#D2232A;} .st15{fill:#4C4C4C;} .st16{fill-rule:evenodd;clip-rule:evenodd;fill:#9C9C9C;} .st17{fill-rule:evenodd;clip-rule:evenodd;fill:#E6EAEB;} .st18{fill:#596B7C;} .st19{fill:#E6EAEB;} .st20{fill:#FD541C;} .st21{fill-rule:evenodd;clip-rule:evenodd;fill:#FFFFFF;} .st22{fill-rule:evenodd;clip-rule:evenodd;fill:#F0B11D;} .st23{fill-rule:evenodd;clip-rule:evenodd;fill:#F9DA3E;} .st24{fill:#0E4268;} </style> <path class="st0" d="M109.7,65.7c-26.8,19.1-55.1,73.9-34.6,102.9l0,0c2.9,4.9,15.4,10.9,20.4,13.9c-0.2,0,64.5-117.4,64.5-117.4 C133.8,48.3,139.6,56.5,109.7,65.7z"></path> <path class="st1" d="M129,70.4c-26.7,15.8-48.3,52.8-48.2,82.7s21.8,41.4,48.6,25.6s48.3-52.8,48.2-82.7 C177.4,66.2,155.7,54.7,129,70.4"></path> <path class="st2" d="M129,78.2c-23.4,13.5-42.3,45.2-42.2,70.8c0.1,25.6,19,35.4,42.4,22c23.3-13.5,42.2-45.1,42.1-70.8 C171.3,74.7,152.4,64.8,129,78.2"></path> <polygon class="st3" points="162.9,127.6 162.9,127.2 156.4,126.6 156,126.9 155.4,128.7 155.5,129 161.7,130 162.1,129.7 "></polygon> <polygon class="st3" points="129.4,169.2 129.3,160.7 129,160.5 127.7,161.2 127.4,161.6 127.1,170.4 127.4,170.6 129.1,169.7 "></polygon> <polygon class="st3" points="160.5,106.2 160.2,106.6 160.2,108.2 160.4,108.3 167.9,104.4 168.1,103.9 168.2,102 168,101.8 "></polygon> <path class="st3" d="M162.9,82.5l-0.4,0.1l-6.4,8L156,91c0,0,0.2,0.2,0.3,0.5c0.2,0.2,0.3,0.6,0.3,0.6l0.3-0.1l6.6-7.7l0.1-0.5 c0,0-0.2-0.4-0.4-0.6C163.1,82.8,162.9,82.5,162.9,82.5z"></path> <polygon class="st3" points="113.5,165 113.4,164.7 112.2,164.5 111.9,164.8 107.9,174.4 108,174.8 109.5,174.9 109.9,174.6 "></polygon> <path class="st3" d="M144.6,146.7c0,0-0.3,0.4-0.6,0.7c-0.3,0.4-0.6,0.7-0.6,0.7l-0.1,0.4l3.4,5.7l0.4-0.1c0,0,0.4-0.5,0.8-0.9 c0.2-0.2,0.4-0.5,0.5-0.6l0,0c0-0.1,0.1-0.1,0.1-0.2c0.1-0.1,0.1-0.1,0.1-0.1l0,0l0.1-0.5l-3.8-5.3L144.6,146.7z"></path> <polygon class="st3" points="146,84.3 150,74.8 150,74.4 148.5,74.3 148.1,74.6 144.5,84.1 144.6,84.4 145.7,84.6 "></polygon> <path class="st3" d="M101.6,157.7c-0.2-0.3-0.2-0.6-0.2-0.6l-0.3,0.1l-6.6,7.7l-0.1,0.5c0,0,0.2,0.3,0.4,0.6 c0.2,0.3,0.4,0.6,0.5,0.6l0.4-0.1l6.3-8l0.1-0.4C102,158.1,101.8,157.9,101.6,157.7z"></path> <polygon class="st3" points="97.4,143 97.8,142.6 97.8,141 97.5,140.9 90.1,144.7 89.8,145.2 89.8,147.2 90,147.3 "></polygon> <path class="st3" d="M113.8,101.7c0.3-0.3,0.6-0.6,0.6-0.7l0.1-0.4l-3.4-5.7l-0.4,0.1c0,0-0.4,0.5-0.8,0.9c-0.4,0.5-0.7,0.9-0.7,0.9 l-0.2,0.5l3.8,5.2l0.3-0.1C113.3,102.5,113.6,102.1,113.8,101.7z"></path> <polygon class="st3" points="101.9,122.2 102.6,120.5 102.5,120.2 96.2,119.1 95.8,119.5 95,121.6 95.1,122 101.6,122.5 "></polygon> <polygon class="st3" points="128.6,88.5 128.9,88.7 130.2,87.9 130.5,87.5 130.9,78.8 130.5,78.6 128.9,79.5 128.6,79.9 "></polygon> <path class="st4" d="M136.3,62.2l-13.7,8v3.9l13.7-7.7V62.2z"></path> <polygon class="st5" points="122.7,74.1 122.6,70.1 109.2,62.3 109.2,66.2 "></polygon> <path class="st6" d="M122.6,70.1v-5.4L109.1,61v1.3L122.6,70.1z"></path> <polygon class="st1" points="136.3,62.2 136.3,62.2 136.2,56.7 122.6,64.7 122.6,70.1 "></polygon> <path class="st4" d="M95.2,100.7L95.2,100.7l-6.6,13l2,0.8l7-12.8L95.2,100.7z"></path> <polygon class="st1" points="92.5,99.6 87.4,109.7 85.9,112.6 88.7,113.7 95.3,100.8 "></polygon> <polygon class="st7" points="92.9,98.9 92.5,99.6 95.2,100.7 97.6,101.6 "></polygon> <path class="st8" d="M93.5,92.1c0,0-12.4-7.1-14.2-8.1c0.1-0.2-1.9-0.6-3.3,0.4l0,0l0,0c-1.2,0.8-10.6,17.8-11.3,19.4l0,0 c-0.6,1.7-1.4,4.4,0.3,6c0.6,0.4,13.2,7.6,13.7,8L93.5,92.1z"></path> <path class="st9" d="M93.5,92.1c-4.9-2.9-7.8,4.6-10.5,9.7c-3.3,6.8-4.4,7.9-5.5,11.3c-1.4,4.4,4.1,10.1,9.4-2.7 C90.6,103,96.7,94,93.5,92.1z"></path> <path class="st10" d="M128,34.1c-1.2-0.6-2.9-0.5-4.3,0.4l0,0c-2,1.4-17.2,9.5-18.2,11.4l0,0c-0.4,0.5-0.8,1-1.3,1.8 c-0.5,0.7-0.8,1.4-1.1,2.1l0,0c-1.8,4.2-1,7.5,4,10c1.9,1,8.2,4.8,10.2,5.9l24.2-23.8L128,34.1z"></path> <path class="st9" d="M140.3,41.5c-0.3,0-0.7-0.1-1.2,0.1c-0.7,0.2-19.3,9.6-21.5,13.8l0,0c-0.5,0.8-0.6,0.9-1.1,2.1l0,0 c-1.6,2.9-1.6,10.3,4.2,8.1c3-1.5,3.3-2,8.8-5.1c6.4-4.1,7.1-3.3,10.7-7.1C143,50.4,145.2,42.6,140.3,41.5z"></path> <polygon class="st1" points="171.8,62.4 164.9,57.3 162.2,61.6 169.1,66.7 171.7,62.5 171.7,62.4 "></polygon> <polygon class="st11" points="164.9,57.3 151.5,49.5 151.5,49.5 148.9,53.8 162.2,61.6 "></polygon> <path class="st4" d="M160,65.2l7.6,3.9l1.5-2.4l-6.8-5.1L160,65.2z"></path> <polygon class="st12" points="160,65.2 162.2,61.6 148.9,53.8 146.5,57.4 "></polygon> <path class="st13" d="M161,40.1c-2.1-1-4.1-3.3-6.7-1.5l0,0c-1.8,1.1-3.1,3.2-4.3,5.3l0,0c-0.8,1.8-0.6,4.4,1.5,5.6l0,0l13.4,7.8 l6-11.4L161,40.1z"></path> <path class="st9" d="M179.1,51.9c0,0-6.8-5.1-8.2-6c-0.6-0.4-2.5-0.5-3.3,0.4c-0.9,1-3.3,4.1-4.1,5.2c-1,1.6-2.1,3.3,1,5.5 c0,0,8,6,8.1,6c1,0.6,2.3,0.6,3.4-0.1c0.6-0.4,1.5-1.6,2.7-3.3C182,55.4,181.3,53.6,179.1,51.9z"></path> <polygon id="second" class="st14" points="131.3,125.1 127.3,125.1 128.5,86 130.1,86 "></polygon> <path class="st15" d="M129.1,120.2L129.1,120.2L129.1,120.2L129.1,120.2c-0.7,0.5-1.3,1-1.8,1.6c-1.2,1.4-2.1,3.4-2,5.1 c0,2.5,1.8,3.4,3.9,2.1c2.1-1.2,3.7-4.1,3.8-6.4c0-0.1,0-0.1,0-0.2c0-1.2-0.4-2-1.1-2.5c-0.1-0.1-0.2-0.1-0.2-0.1 C130.9,119.5,130.1,119.6,129.1,120.2z"></path> <g id="cert"> <path class="st16" d="M164.1,179.9c-0.4,3.4,3.7,4.5,5.9,6L278,36.6c-1.8-0.5-4.6-3.5-6.5-2.8c-1.9,0.2-100.2,57.9-102,58.6 c-1,0.6-1.9,1.4-2.5,2.2c-1.4,1.7-2.3,3.7-2.8,5.8C163.8,101.8,164.1,178.5,164.1,179.9z"></path> <path class="st17" d="M274.3,127.4c2.9-1.8,5.2-5.9,5.2-9.2v-78c0-1.8-0.6-2.9-1.6-3.5s-2.3-0.5-3.8,0.4L173.7,94.9 c-3,1.8-5.4,5.9-5.4,9.4v78c0,1.8,0.6,2.9,1.6,3.5s2.3,0.5,3.8-0.4L274.3,127.4z"></path> <polygon class="st18" points="225.9,130.4 226,136.6 185.8,159.8 185.8,153.5 "></polygon> <polygon class="st18" points="226,110.8 226,117 185.9,140.2 185.8,133.9 "></polygon> <polygon id="line2" class="st19" points="227.2,126.6 227.2,138.3 184.7,162.9 184.6,151.2 "></polygon> <polygon id="line1" class="st19" points="227.2,107.1 227.2,118.8 184.7,143.4 184.6,131.7 "></polygon> <polygon id="ribbon" class="st20" points="244.6,133 250.8,124.9 256.9,126.3 256.9,108.6 244.6,115.9 "></polygon> <path id="glow" class="st21" d="M258.6,91.1c-1.8-1.1-4.5-0.9-7.3,0.7c-5.7,3.3-10.3,11.3-10.3,17.8c0,7.3,5.7,9.6,11.9,4.9 c2.2-1.7,4.1-4,5.7-6.6l0,0C262.6,101.1,262.7,93.5,258.6,91.1z"></path> <g id="gold"> <path class="st22" d="M258.6,91.1c-11.2-7.5-26.2,20-14.5,25.2L258.6,91.1z M243.6,116L243.6,116L243.6,116z M244.8,116.8 L244.8,116.8L244.8,116.8z"></path> <path class="st23" d="M258.6,91.1c-1.8-1.1-4.5-0.9-7.3,0.7c-5.7,3.3-10.3,11.3-10.3,17.8c0,7.3,5.7,9.6,11.9,4.9 c2.2-1.7,4.1-4,5.7-6.6l0,0C262.6,101.1,262.7,93.5,258.6,91.1z"></path> </g> <polyline class="st24" points="220.2,87.5 219.6,87.9 217.9,96.4 217.9,96.4 215.7,90 215,90.4 213.1,99.2 213,99.2 211.3,92.6 210.5,93.1 212.6,100.7 213.4,100.3 215.3,91.7 215.4,91.6 217.5,97.9 218.3,97.4 220.2,87.5 "></polyline> <polyline class="st24" points="223.4,85.6 222.6,86 222.7,94.9 223.4,94.5 223.4,85.6 "></polyline> <path class="st24" d="M227.2,91.5v-7.2l1.5-0.9c1-0.6,1.6-0.9,1.9-1s0.6,0.1,0.6,0.6c0.2,0.4,0.2,1.3,0.2,2.5s-0.1,2.2-0.2,2.8 c-0.1,0.6-0.3,1-0.6,1.3s-1,0.7-1.9,1.3L227.2,91.5 M228.8,82.5l-2.4,1.4v8.8l2.4-1.4c1-0.6,1.8-1.1,2.2-1.6c0.5-0.5,0.7-1,0.9-1.7 c0.2-0.6,0.2-1.7,0.2-3s-0.1-2.4-0.2-2.8c-0.2-0.5-0.4-0.7-0.9-0.6C230.6,81.6,229.9,82,228.8,82.5"></path> <polyline class="st24" points="247.9,71.5 247.2,71.9 244.7,81.1 244.6,81.2 242.1,74.9 241.3,75.3 244.2,82.5 245.1,82 247.9,71.5 "></polyline> <polyline class="st24" points="250.9,69.8 250.2,70.2 250.2,78.9 250.9,78.6 250.9,69.8 "></polyline> <polyline class="st24" points="259.8,64.6 259.2,65 259.2,72.2 259.1,72.2 254.7,67.6 254,68 254,76.8 254.7,76.4 254.6,69.2 254.7,69.1 259.2,73.9 259.9,73.5 259.8,64.6 "></polyline> <polyline class="st24" points="239.5,76.4 234.8,79 234.8,87.9 239.5,85.2 239.7,84.2 235.6,86.7 235.5,83.4 239.1,81.3 239.1,80.5 235.5,82.7 235.5,79.3 239.7,77 239.5,76.4 "></polyline> <polyline class="st24" points="267.5,60.2 262.8,62.9 262.8,71.7 267.5,69 267.7,68.1 263.5,70.5 263.5,67.2 267.1,65.2 267.1,64.4 263.5,66.5 263.5,63.3 267.7,60.8 267.5,60.2 "></polyline> <path class="st24" d="M205.4,93.1l-5.1,2.9l-1.9,9.1c-0.2,0.6-0.5,1-0.8,1.2l-3.9,2.3c-0.3,0.2-0.6,0.2-0.6-0.2l-1.3-4.6l-4.7,8.2 c-0.1,0.1-0.2,0.2-0.2,0.2c-0.2,0.1-0.2,0.1-0.3-0.1l-1.3-4.6l-5.1,2.9l1.4,5l4.6-2.7c0.3-0.2,0.6-0.2,0.6,0.2l1.3,4.6l4.7-8.3 c0.1-0.2,0.2-0.2,0.2-0.2c0.2-0.1,0.2-0.1,0.2,0.1l1.3,4.6l5.1-2.9l-1.3-4.5c-0.1-0.2,0.1-0.6,0.3-0.8l4.6-2.7L205.4,93.1"></path> </g> </svg> 