<?xml version="1.0" encoding="UTF-8" standalone="no"?>
<svg
   width="48"
   height="48"
   viewBox="0 0 48 48"
   fill="none"
   version="1.1"
   id="svg6"
   sodipodi:docname="sadtab.svg"
   inkscape:version="1.1.2 (0a00cf5339, 2022-02-04)"
   xmlns:inkscape="http://www.inkscape.org/namespaces/inkscape"
   xmlns:sodipodi="http://sodipodi.sourceforge.net/DTD/sodipodi-0.dtd"
   xmlns="http://www.w3.org/2000/svg"
   xmlns:svg="http://www.w3.org/2000/svg">
  <defs
     id="defs10" />
  <sodipodi:namedview
     id="namedview8"
     pagecolor="#ffffff"
     bordercolor="#666666"
     borderopacity="1.0"
     inkscape:pageshadow="2"
     inkscape:pageopacity="0.0"
     inkscape:pagecheckerboard="0"
     showgrid="false"
     inkscape:zoom="17.583333"
     inkscape:cx="23.971564"
     inkscape:cy="24.028436"
     inkscape:window-width="1856"
     inkscape:window-height="1016"
     inkscape:window-x="1744"
     inkscape:window-y="27"
     inkscape:window-maximized="1"
     inkscape:current-layer="svg6" />
  <path
     stroke="#5f6368"
     stroke-width="3"
     stroke-linecap="square"
     d="M1.5 8.5v34h45v-28m-3-3h-10v-3m-3-3h-10m15 6h-18v-3m-3-3h-10"
     id="path2" />
  <path
     stroke="#5f6368"
     stroke-width="2"
     stroke-linecap="square"
     d="M12 35h2m2-2h12m2 2h3m2 2h3M11 21h0m0 4h0m4 0h0m0-4h0m-2 2h0m20-2h0m0 4h0m4 0h0m0-4h0m-2 2h0"
     id="path4" />
  <path
     style="fill:#ff0000;stroke-width:0.056872"
     d="M 0,25.507109 V 7.0236967 H 1.478673 2.957346 V 24.028436 41.033175 H 24 45.042654 V 27.042654 13.052133 H 46.521327 48 V 28.521327 43.990521 H 24 0 Z"
     id="path86" />
  <path
     style="fill:#ff0000;stroke-width:0.056872"
     d="m 15.014218,33.014218 v -0.966825 h 6.966825 6.966824 v 0.966825 0.966825 h -6.966824 -6.966825 z"
     id="path281" />
  <path
     style="fill:#ff0000;stroke-width:0.056872"
     d="m 11.033175,35.004739 v -0.966824 h 1.962086 1.962085 v 0.966824 0.966825 h -1.962085 -1.962086 z"
     id="path320" />
  <path
     style="fill:#ff0000;stroke-width:0.056872"
     d="m 29.004739,35.004739 v -0.966824 h 2.473934 2.473934 v 0.966824 0.966825 h -2.473934 -2.473934 z"
     id="path359" />
  <path
     style="fill:#ff0000;stroke-width:0.056872"
     d="m 34.009479,36.995261 v -0.966825 h 2.473933 2.473934 v 0.966825 0.966824 h -2.473934 -2.473933 z"
     id="path398" />
  <path
     style="fill:#ff0000;stroke-width:0.056872"
     d="M 16.037915,10.009479 V 7.0236967 h 1.478673 1.478673 v 1.507109 1.5071093 h 6.511848 6.511848 V 8.5308057 7.0236967 h 1.478673 1.478673 v 1.507109 1.5071093 h 5.00474 5.004739 v 1.478673 1.478673 H 30.511848 16.037915 Z"
     id="path437" />
  <path
     style="fill:#ff0000;stroke-width:0.056872"
     d="m 19.052133,5.4881517 v -1.478673 h 6.454976 6.454976 v 1.478673 1.4786729 h -6.454976 -6.454976 z"
     id="path476" />
  <path
     style="fill:#ff0000;stroke-width:0.056872"
     d="m 3.014218,5.4881517 v -1.478673 h 6.4834123 6.4834127 v 1.478673 1.4786729 H 9.4976303 3.014218 Z"
     id="path515" />
</svg>
