<svg xmlns="http://www.w3.org/2000/svg" width=" 192" height=" 192" fill-rule="evenodd" class="vector-svg"><path fill="gray" stroke="gray" stroke-width="0px" stroke-linecap="round" shape-rendering="geometricPrecision" d="M 96 96 m -96 0 a 96 96 0 1 0 192 0 a 96 96 0 1 0 -192 0" style="fill: rgb(26, 115, 232); stroke: rgb(26, 115, 232);"/><path fill="gray" stroke="gray" stroke-width="0px" stroke-linecap="round" shape-rendering="geometricPrecision" d="M 149 67 C 149 62.58 145.42 59 141 59 L 50 59 C 45.58 59 42 62.58 42 67 L 42 132 C 42 136.42 45.58 140 50 140 L 141 140 C 145.42 140 149 136.42 149 132 L 149 67" style="fill: rgb(0, 0, 0); stroke: rgb(0, 0, 0);"/><path fill="gray" stroke="gray" stroke-width="0px" stroke-linecap="round" shape-rendering="geometricPrecision" d="M 50 52 C 45.58 52 42 55.58 42 60 V 132 C 42 136.42 45.58 140 50 140 H 141.13 C 145.55 140 149.13 136.42 149.13 132 V 125.13 L 76 52 H 50" style="fill: rgb(255, 255, 255); stroke: rgb(255, 255, 255);"/><path fill="gray" stroke="gray" stroke-width="0px" stroke-linecap="round" shape-rendering="geometricPrecision" d="m 149 77 c 0 -4.42 -3.58 -8 -8 -8 h -99 v 63 c 0 4.42 3.58 8 8 8 h 91 c 4.42 0 8 -3.58 8 -8 Z" style="fill: rgb(128, 249, 249); stroke: rgb(128, 249, 249);"/></svg>
