<?xml version="1.0" encoding="UTF-8" standalone="no"?>
<svg
   width="36"
   height="36"
   version="1.1"
   id="svg4"
   sodipodi:docname="i_circle.svg"
   inkscape:version="1.1.2 (0a00cf5339, 2022-02-04)"
   xmlns:inkscape="http://www.inkscape.org/namespaces/inkscape"
   xmlns:sodipodi="http://sodipodi.sourceforge.net/DTD/sodipodi-0.dtd"
   xmlns="http://www.w3.org/2000/svg"
   xmlns:svg="http://www.w3.org/2000/svg">
  <defs
     id="defs8" />
  <sodipodi:namedview
     id="namedview6"
     pagecolor="#ffffff"
     bordercolor="#666666"
     borderopacity="1.0"
     inkscape:pageshadow="2"
     inkscape:pageopacity="0.0"
     inkscape:pagecheckerboard="0"
     showgrid="false"
     inkscape:zoom="23.444444"
     inkscape:cx="17.978673"
     inkscape:cy="18.021327"
     inkscape:window-width="1856"
     inkscape:window-height="1016"
     inkscape:window-x="1744"
     inkscape:window-y="27"
     inkscape:window-maximized="1"
     inkscape:current-layer="svg4" />
  <path
     d="M18 0C8.064 0 0 8.064 0 18s8.064 18 18 18 18-8.064 18-18S27.936 0 18 0zm0 32c-7.717 0-14-6.282-14-14 0-7.717 6.283-14 14-14 7.718 0 14 6.283 14 14 0 7.718-6.282 14-14 14zm-2-5h4V17h-4v10zm0-14h4V9h-4v4z"
     fill="#5A5A5A"
     fill-rule="evenodd"
     id="path2" />
  <path
     style="fill:#ff0000;stroke-width:0.042654"
     d="M 16.677725,35.931523 C 13.017918,35.643228 9.6441377,34.314355 6.7819905,32.033765 3.71535,29.590232 1.5006611,26.144888 0.55766355,22.350711 0.14636054,20.695822 -0.01703879,19.040076 0.05043491,17.2109 0.3086657,10.210402 4.8121537,3.8867024 11.389923,1.2882383 c 1.525975,-0.60281707 2.966835,-0.9617598 4.690646,-1.16851943 0.871109,-0.10448375 2.965426,-0.10337339 3.860189,0.002047 4.690572,0.55263765 8.755883,2.72725883 11.821735,6.32369673 2.343155,2.7486695 3.837173,6.3618834 4.151175,10.0394324 0.06543,0.766324 0.05566,2.426128 -0.01884,3.201258 -0.668848,6.958561 -5.251001,12.851253 -11.85443,15.244908 -2.251802,0.816248 -4.985537,1.187716 -7.362671,1.000462 z m 3.135071,-4.025079 c 4.490826,-0.617199 8.334858,-3.255739 10.503746,-7.209762 2.263856,-4.127154 2.263915,-9.26388 1.7e-4,-13.393364 C 28.339369,7.6963308 24.903325,5.1320521 20.918159,4.2892993 19.818845,4.0568246 19.372055,4.0140005 18.021327,4.0116426 17.038005,4.0099226 16.670657,4.0256416 16.229858,4.0882816 14.552325,4.3266687 13.267442,4.715441 11.836493,5.4175993 9.5661111,6.5316619 7.6806333,8.1900898 6.301388,10.286164 5.0714126,12.15539 4.3462536,14.141073 4.0679277,16.401987 c -0.096162,0.781149 -0.096162,2.414877 0,3.196026 0.514955,4.183117 2.7371404,7.79445 6.2136583,10.097985 1.976348,1.309524 4.204714,2.076577 6.652063,2.289789 0.468045,0.04078 2.390659,-0.01221 2.879147,-0.07934 z"
     id="path84" />
  <path
     style="fill:#ff0000;stroke-width:0.042654"
     d="M 16.037915,22.009479 V 17.040284 H 18 19.962085 v 4.969195 4.969194 H 18 16.037915 Z"
     id="path123" />
  <path
     style="fill:#ff0000;stroke-width:0.042654"
     d="M 16.037915,11.004739 V 9.021327 H 18 19.962085 v 1.983412 1.983413 H 18 16.037915 Z"
     id="path162" />
</svg>
