<?xml version="1.0" encoding="UTF-8" standalone="no"?>
<svg
   width="120"
   height="120"
   version="1.1"
   id="svg8"
   sodipodi:docname="incognito_splash.svg"
   inkscape:version="1.1.2 (0a00cf5339, 2022-02-04)"
   xmlns:inkscape="http://www.inkscape.org/namespaces/inkscape"
   xmlns:sodipodi="http://sodipodi.sourceforge.net/DTD/sodipodi-0.dtd"
   xmlns="http://www.w3.org/2000/svg"
   xmlns:svg="http://www.w3.org/2000/svg">
  <defs
     id="defs12" />
  <sodipodi:namedview
     id="namedview10"
     pagecolor="#ffffff"
     bordercolor="#666666"
     borderopacity="1.0"
     inkscape:pageshadow="2"
     inkscape:pageopacity="0.0"
     inkscape:pagecheckerboard="0"
     showgrid="false"
     inkscape:zoom="7.0333333"
     inkscape:cx="59.92891"
     inkscape:cy="60.07109"
     inkscape:window-width="1856"
     inkscape:window-height="1016"
     inkscape:window-x="1744"
     inkscape:window-y="27"
     inkscape:window-maximized="1"
     inkscape:current-layer="svg8" />
  <g
     fill="none"
     fill-rule="evenodd"
     id="g6">
    <path
       d="M0 0h120v120H0z"
       id="path2" />
    <path
       d="M60 0c33.137 0 60 26.863 60 60s-26.863 60-60 60S0 93.137 0 60 26.863 0 60 0zm17.5 64.837c-6.456 0-11.822 4.502-13.222 10.516-3.267-1.397-6.3-1.009-8.556-.039C54.283 69.3 48.917 64.837 42.5 64.837c-7.506 0-13.611 6.092-13.611 13.582C28.889 85.908 34.994 92 42.5 92c7.156 0 12.95-5.51 13.494-12.495 1.167-.815 4.24-2.328 8.012.078C64.628 86.529 70.383 92 77.5 92c7.506 0 13.611-6.092 13.611-13.581 0-7.49-6.105-13.582-13.611-13.582zm-35 3.88c5.367 0 9.722 4.347 9.722 9.702 0 5.355-4.355 9.7-9.722 9.7-5.367 0-9.722-4.345-9.722-9.7 0-5.355 4.355-9.701 9.722-9.701zm35 0c5.367 0 9.722 4.347 9.722 9.702 0 5.355-4.355 9.7-9.722 9.7-5.367 0-9.722-4.345-9.722-9.7 0-5.355 4.355-9.701 9.722-9.701zM95 57H25v4h70v-4zM72.874 29.34c-.8-1.82-2.866-2.78-4.785-2.143L60 29.914l-8.128-2.717-.192-.058c-1.928-.533-3.954.51-4.669 2.387L38.144 53h43.712L72.95 29.526z"
       fill="#DADCE0"
       id="path4" />
  </g>
  <path
     style="fill:#ff0000;stroke-width:0.14218"
     d="m 38.31409,52.71327 c 0.05394,-0.136848 2.089141,-5.516967 4.522676,-11.955819 3.947966,-10.445861 4.484638,-11.775202 4.981853,-12.340068 0.706923,-0.803106 1.487584,-1.201221 2.543159,-1.296937 0.775103,-0.07028 1.135911,0.02644 5.224667,1.400677 l 4.392067,1.476176 4.359538,-1.474474 c 4.14625,-1.402336 4.403873,-1.470915 5.265748,-1.401732 1.435205,0.115204 2.599793,0.936349 3.175595,2.239097 0.155535,0.351895 2.200925,5.694312 4.545311,11.872037 2.344385,6.177726 4.306789,11.344195 4.360897,11.481043 0.09343,0.236312 -0.996265,0.248815 -21.685601,0.248815 -20.689218,0 -21.779049,-0.0125 -21.68591,-0.248815 z"
     id="path88" />
  <path
     style="fill:#ff0000;stroke-width:0.14218"
     d="M 25.023697,59.004739 V 57.085308 H 60 94.976303 v 1.919431 1.919432 H 60 25.023697 Z"
     id="path127" />
  <path
     style="fill:#ff0000;stroke-width:0.14218"
     d="m 39.810427,91.651366 c -5.113311,-1.124284 -8.94754,-4.723175 -10.40947,-9.770556 -0.280226,-0.967492 -0.325128,-1.446506 -0.325128,-3.468488 0,-2.021981 0.0449,-2.500996 0.325128,-3.468488 1.549554,-5.349908 5.827025,-9.110239 11.268136,-9.905835 1.498207,-0.219067 3.687248,-0.09681 5.183988,0.28953 2.627188,0.678127 5.451863,2.511446 7.159062,4.646498 0.947233,1.184625 2.17083,3.504381 2.451519,4.647713 0.145365,0.592118 0.210745,0.67842 0.468746,0.618752 0.164901,-0.03814 0.841291,-0.21182 1.503088,-0.385964 1.669812,-0.439388 4.249313,-0.35007 5.823104,0.201631 0.580145,0.203373 1.066558,0.353911 1.08092,0.33453 0.01436,-0.01938 0.104232,-0.355144 0.199715,-0.746139 0.09548,-0.390995 0.42348,-1.244728 0.728884,-1.897183 3.240256,-6.922374 11.425179,-9.794982 18.24881,-6.404665 3.468326,1.723236 5.96999,4.761474 7.082114,8.601132 0.280226,0.967492 0.325128,1.446507 0.325128,3.468488 0,2.622005 -0.199678,3.615789 -1.131916,5.633498 -3.125428,6.76458 -11.311098,9.775407 -17.949468,6.602119 -2.987339,-1.428014 -5.288138,-3.742891 -6.603539,-6.643945 -0.466557,-1.028969 -1.116025,-3.375313 -1.116025,-4.031878 0,-0.481865 -0.557427,-0.846107 -2.07394,-1.355184 -1.78886,-0.600501 -3.829329,-0.428797 -5.478178,0.460984 -0.63753,0.344034 -0.658864,0.377339 -0.742699,1.159473 -0.558711,5.212419 -4.678588,9.857027 -9.999699,11.273321 -1.612883,0.429292 -4.408398,0.494628 -6.01828,0.140656 z M 45,87.849958 c 3.358787,-0.862149 6.055718,-3.573477 6.983292,-7.020574 0.330846,-1.229504 0.327907,-3.583355 -0.006,-4.834123 -0.533951,-1.999895 -1.797585,-3.957081 -3.334359,-5.164439 -5.454914,-4.285623 -13.301429,-1.918621 -15.470276,4.666808 -0.322631,0.979628 -0.375156,1.384024 -0.378581,2.914692 -0.0035,1.551613 0.04409,1.92166 0.374605,2.914692 0.528317,1.587319 1.284326,2.813976 2.452242,3.978863 1.515358,1.511427 3.340723,2.442262 5.434505,2.771294 C 42.084551,88.2389 43.889866,88.134913 45,87.849958 Z m 34.976303,0.0011 c 3.219552,-0.821995 5.780006,-3.259502 6.853188,-6.524114 0.323158,-0.983045 0.373912,-1.378684 0.373912,-2.914692 0,-1.538769 -0.05036,-1.929881 -0.375314,-2.914692 -1.896612,-5.747901 -8.321437,-8.48046 -13.660297,-5.809864 -6.020937,3.011783 -7.307214,10.952493 -2.535737,15.654132 2.464944,2.428865 5.971252,3.370433 9.344248,2.509262 z"
     id="path166" />
</svg>
