<?xml version="1.0" encoding="UTF-8" standalone="no"?>
<svg
   xmlns:dc="http://purl.org/dc/elements/1.1/"
   xmlns:cc="http://creativecommons.org/ns#"
   xmlns:rdf="http://www.w3.org/1999/02/22-rdf-syntax-ns#"
   xmlns:svg="http://www.w3.org/2000/svg"
   xmlns="http://www.w3.org/2000/svg"
   xmlns:sodipodi="http://sodipodi.sourceforge.net/DTD/sodipodi-0.dtd"
   xmlns:inkscape="http://www.inkscape.org/namespaces/inkscape"
   width="120"
   height="120"
   version="1.1"
   id="svg8"
   sodipodi:docname="incognito_splash.svg"
   inkscape:version="1.0.2 (e86c870879, 2021-01-15)">
  <metadata
     id="metadata14">
    <rdf:RDF>
      <cc:Work
         rdf:about="">
        <dc:format>image/svg+xml</dc:format>
        <dc:type
           rdf:resource="http://purl.org/dc/dcmitype/StillImage" />
      </cc:Work>
    </rdf:RDF>
  </metadata>
  <defs
     id="defs12" />
  <sodipodi:namedview
     pagecolor="#ffffff"
     bordercolor="#666666"
     borderopacity="1"
     objecttolerance="10"
     gridtolerance="10"
     guidetolerance="10"
     inkscape:pageopacity="0"
     inkscape:pageshadow="2"
     inkscape:window-width="1920"
     inkscape:window-height="1031"
     id="namedview10"
     showgrid="false"
     inkscape:zoom="7.1476993"
     inkscape:cx="60"
     inkscape:cy="59.72019"
     inkscape:window-x="1680"
     inkscape:window-y="30"
     inkscape:window-maximized="1"
     inkscape:current-layer="svg8" />
  <g
     fill="none"
     fill-rule="evenodd"
     id="g6">
    <path
       d="M0 0h120v120H0z"
       id="path2" />
    <path
       d="M60 0c33.137 0 60 26.863 60 60s-26.863 60-60 60S0 93.137 0 60 26.863 0 60 0zm17.5 64.837c-6.456 0-11.822 4.502-13.222 10.516-3.267-1.397-6.3-1.009-8.556-.039C54.283 69.3 48.917 64.837 42.5 64.837c-7.506 0-13.611 6.092-13.611 13.582C28.889 85.908 34.994 92 42.5 92c7.156 0 12.95-5.51 13.494-12.495 1.167-.815 4.24-2.328 8.012.078C64.628 86.529 70.383 92 77.5 92c7.506 0 13.611-6.092 13.611-13.581 0-7.49-6.105-13.582-13.611-13.582zm-35 3.88c5.367 0 9.722 4.347 9.722 9.702 0 5.355-4.355 9.7-9.722 9.7-5.367 0-9.722-4.345-9.722-9.7 0-5.355 4.355-9.701 9.722-9.701zm35 0c5.367 0 9.722 4.347 9.722 9.702 0 5.355-4.355 9.7-9.722 9.7-5.367 0-9.722-4.345-9.722-9.7 0-5.355 4.355-9.701 9.722-9.701zM95 57H25v4h70v-4zM72.874 29.34c-.8-1.82-2.866-2.78-4.785-2.143L60 29.914l-8.128-2.717-.192-.058c-1.928-.533-3.954.51-4.669 2.387L38.144 53h43.712L72.95 29.526z"
       fill="#DADCE0"
       id="path4" />
  </g>
  <path
     style="fill:#ff0000;stroke-width:0.139905"
     d="M 56.556477,119.87829 C 37.533089,118.6892 20.57198,108.94288 10.055452,93.157523 1.9226496,80.950147 -1.3908943,66.382409 0.62008009,51.675643 2.710148,36.390446 10.877528,22.256697 23.151295,12.685104 38.768428,0.50621735 59.437293,-3.1413255 78.467481,2.9231676 c 4.02831,1.2837321 9.487576,3.8203488 13.170493,6.1195942 12.579606,7.8534552 21.931456,20.2062412 25.978466,34.3147792 5.93494,20.69016 0.40947,42.910565 -14.49142,58.276589 -10.046263,10.35985 -22.873138,16.57922 -37.179051,18.02701 -2.636946,0.26686 -6.985322,0.36743 -9.389492,0.21715 z M 45.799626,91.613436 c 1.411506,-0.360554 3.119166,-1.128828 4.353685,-1.958716 1.096504,-0.73711 2.816183,-2.454556 3.509648,-3.505094 1.174135,-1.778708 2.048898,-4.03687 2.279847,-5.88533 0.09527,-0.762544 0.120352,-0.800471 0.759236,-1.148194 1.918762,-1.04432 4.26496,-1.036514 6.410031,0.02133 l 0.792379,0.390762 0.239512,1.216881 c 0.584299,2.968617 1.794348,5.282291 3.824298,7.312242 4.039405,4.039404 10.12618,5.099657 15.274835,2.660715 1.63911,-0.776454 2.363383,-1.278092 3.728782,-2.582586 1.805963,-1.725407 3.073286,-3.887282 3.769161,-6.42966 0.437754,-1.59933 0.433328,-4.938683 -0.0087,-6.596028 -1.347856,-5.053195 -5.379239,-8.916414 -10.446051,-10.01031 -1.489876,-0.321656 -4.107445,-0.321602 -5.594162,1.18e-4 -4.746609,1.027146 -8.596014,4.525434 -10.140032,9.215129 -0.251828,0.764886 -0.359615,0.936234 -0.544312,0.865289 -2.326521,-0.89366 -5.224095,-0.97458 -7.408313,-0.206888 -0.432787,0.152112 -0.799348,0.276567 -0.814578,0.276567 -0.01523,0 -0.164635,-0.424962 -0.332006,-0.944359 -0.995567,-3.089491 -3.210979,-5.867989 -6.025234,-7.556649 -5.111223,-3.066928 -11.630983,-2.422427 -16.069991,1.588574 -1.831154,1.654596 -3.432514,4.304331 -4.092959,6.772529 -0.412748,1.542515 -0.449459,4.832724 -0.07081,6.346491 1.343681,5.3718 5.543462,9.340788 10.973184,10.370167 1.494363,0.283305 4.071163,0.185872 5.632592,-0.212979 z M 95.046242,58.950711 V 56.922087 H 60 24.953758 v 2.028624 2.028625 H 60 95.046242 Z M 81.633417,52.340193 C 81.491707,51.97469 79.432594,46.544621 77.057613,40.273373 L 72.739467,28.871102 72.034705,28.161264 c -0.787031,-0.792699 -1.679191,-1.178882 -2.723456,-1.178882 -0.441707,0 -1.995019,0.451066 -4.976688,1.445175 L 60,29.872732 55.66294,28.429366 c -3.021774,-1.005641 -4.537004,-1.443914 -4.996362,-1.445175 -1.47501,-0.004 -2.986973,0.996979 -3.589625,2.376579 -0.210469,0.481813 -5.247243,13.769304 -8.604545,22.699612 l -0.355026,0.94436 h 21.886846 21.886847 z"
     id="path16" />
  <path
     style="fill:#ff0000;stroke-width:0.139905"
     d="m 41.112804,87.989525 c -1.154391,-0.187989 -1.907378,-0.429452 -2.922134,-0.937052 -2.512954,-1.257026 -4.339014,-3.492963 -5.081706,-6.222348 -0.327567,-1.2038 -0.31933,-3.643531 0.01648,-4.880937 0.693031,-2.553728 2.709177,-5.031686 4.991969,-6.135414 1.701814,-0.822827 2.779931,-1.039396 4.814161,-0.967055 2.729808,0.09708 4.441225,0.85096 6.43666,2.835362 1.874943,1.864576 2.773709,4.040586 2.773709,6.715447 0,1.696463 -0.260786,2.793472 -1.047656,4.407013 -0.46736,0.958361 -0.81347,1.421369 -1.783076,2.385305 -1.30542,1.297786 -2.42744,1.979173 -4.104143,2.492392 -1.069871,0.327473 -3.05527,0.476485 -4.094261,0.307287 z"
     id="path18" />
  <path
     style="fill:#ff0000;stroke-width:0.139905"
     d="m 76.015345,87.981866 c -2.04318,-0.324698 -3.738669,-1.213422 -5.326553,-2.79202 -1.938042,-1.926709 -2.841275,-4.091721 -2.833722,-6.792318 0.0075,-2.687482 0.900033,-4.854314 2.762336,-6.706329 2.001709,-1.990651 3.717667,-2.747276 6.451023,-2.84448 2.050677,-0.07292 3.131145,0.146748 4.826728,0.981338 2.304771,1.13444 4.287591,3.571902 4.979401,6.121131 0.335808,1.237406 0.344045,3.677137 0.01648,4.880937 -0.914789,3.361836 -3.619686,6.079198 -6.89408,6.925853 -1.07362,0.277604 -2.976768,0.385575 -3.981611,0.225888 z"
     id="path20" />
</svg>
