<?xml version="1.0" encoding="UTF-8" standalone="no"?>
<svg
   height="24"
   viewBox="0 0 24 24"
   width="24"
   fill="#455A64"
   version="1.1"
   id="svg6"
   sodipodi:docname="incognito_icon.svg"
   inkscape:version="1.1.2 (0a00cf5339, 2022-02-04)"
   xmlns:inkscape="http://www.inkscape.org/namespaces/inkscape"
   xmlns:sodipodi="http://sodipodi.sourceforge.net/DTD/sodipodi-0.dtd"
   xmlns="http://www.w3.org/2000/svg"
   xmlns:svg="http://www.w3.org/2000/svg">
  <defs
     id="defs10" />
  <sodipodi:namedview
     id="namedview8"
     pagecolor="#ffffff"
     bordercolor="#666666"
     borderopacity="1.0"
     inkscape:pageshadow="2"
     inkscape:pageopacity="0.0"
     inkscape:pagecheckerboard="0"
     showgrid="false"
     inkscape:zoom="35.166667"
     inkscape:cx="11.985782"
     inkscape:cy="12.014218"
     inkscape:window-width="1856"
     inkscape:window-height="1016"
     inkscape:window-x="1744"
     inkscape:window-y="27"
     inkscape:window-maximized="1"
     inkscape:current-layer="svg6" />
  <path
     fill="none"
     d="M0 0h24v24H0z"
     id="path2" />
  <path
     d="M3 11h18v1H3zm14.62-1-2.29-6.1c-.19-.5-.74-.77-1.25-.6L12 4l-2.09-.7c-.51-.17-1.06.1-1.25.6L6.38 10h11.24zm-1.12 3c-1.66 0-3.04 1.16-3.4 2.71-.84-.36-1.62-.26-2.2-.01A3.503 3.503 0 0 0 7.5 13C5.57 13 4 14.57 4 16.5S5.57 20 7.5 20c1.84 0 3.33-1.42 3.47-3.22.3-.21 1.09-.6 2.06.02.16 1.79 1.64 3.2 3.47 3.2 1.93 0 3.5-1.57 3.5-3.5S18.43 13 16.5 13zm-9 6a2.5 2.5 0 0 1 0-5 2.5 2.5 0 0 1 0 5zm9 0a2.5 2.5 0 0 1 0-5 2.5 2.5 0 0 1 0 5z"
     id="path4" />
  <path
     style="fill:#ff0000;stroke-width:0.028436"
     d="M 6.8957346,19.93059 C 5.6631036,19.710551 4.6342859,18.833178 4.2150962,17.64455 4.0702272,17.233768 4.0268912,16.967351 4.0277648,16.492891 c 0.00177,-0.96322 0.3365494,-1.76764 1.0179154,-2.445911 0.6821249,-0.679026 1.4938466,-1.019758 2.4329928,-1.021283 0.7273817,-0.0012 1.3168152,0.172722 1.9274272,0.568657 0.2989626,0.193855 0.7905648,0.679514 0.9776178,0.9658 0.220406,0.337332 0.478841,0.917869 0.478841,1.075646 0,0.0728 0.04671,0.07826 0.189876,0.0222 0.517603,-0.202678 1.152691,-0.218755 1.723251,-0.04362 0.351673,0.107946 0.320813,0.122784 0.432267,-0.207847 0.184626,-0.547692 0.432708,-0.945401 0.850052,-1.362745 0.683039,-0.683038 1.482046,-1.017035 2.434886,-1.017819 0.964892,-7.94e-4 1.780992,0.337476 2.460129,1.019712 0.510626,0.512956 0.811519,1.069816 0.968927,1.793183 0.06941,0.318968 0.06922,0.995283 -3.64e-4,1.322274 -0.309893,1.456195 -1.421798,2.533416 -2.863887,2.77455 -0.409313,0.06844 -1.015701,0.04479 -1.396543,-0.05446 -1.363745,-0.355424 -2.373235,-1.476567 -2.590019,-2.876486 l -0.03523,-0.227488 -0.212266,-0.107165 c -0.116746,-0.05894 -0.320936,-0.134215 -0.453755,-0.167274 -0.415188,-0.103344 -0.891718,-0.03698 -1.267426,0.17651 l -0.143986,0.08182 -0.03204,0.235544 c -0.174597,1.283528 -1.097433,2.394642 -2.3325515,2.808445 -0.1364869,0.04573 -0.3617449,0.102948 -0.5005735,0.127158 -0.3112356,0.05427 -0.8886134,0.05346 -1.1975724,-0.0017 z m 1.3066538,-1.019606 c 1.0423684,-0.307889 1.7467732,-1.204876 1.7984436,-2.290131 0.06939,-1.457417 -1.0491505,-2.627848 -2.507941,-2.624292 -0.531865,0.0013 -0.9576317,0.129757 -1.3953376,0.420997 -1.0101025,0.672099 -1.392142,2.023883 -0.8832638,3.125283 0.3364749,0.728256 0.9744709,1.242813 1.752535,1.413457 0.3521227,0.07723 0.8871248,0.05761 1.2355638,-0.04531 z m 8.8166266,0.04491 c 1.466357,-0.302655 2.336401,-1.826202 1.860392,-3.257761 -0.12498,-0.375868 -0.308475,-0.667488 -0.609265,-0.968278 -0.30079,-0.30079 -0.592411,-0.484285 -0.968278,-0.609265 -1.371608,-0.456075 -2.832469,0.317524 -3.226725,1.708711 -0.07693,0.271465 -0.10436,0.774411 -0.05793,1.062236 0.171303,1.061903 1.009809,1.911272 2.060305,2.086996 0.257288,0.04304 0.671556,0.03308 0.941499,-0.02264 z"
     id="path86" />
  <path
     style="fill:#ff0000;stroke-width:0.028436"
     d="M 3.014218,11.50237 V 11.018957 H 12 20.985782 v 0.483413 0.483412 H 12 3.014218 Z"
     id="path125" />
  <path
     style="fill:#ff0000;stroke-width:0.028436"
     d="M 6.4813268,9.7748815 C 7.2829873,7.6148986 8.6915326,3.870862 8.7353273,3.7835509 8.7671371,3.7201335 8.8564869,3.6080883 8.9338823,3.5345616 9.1159685,3.3615774 9.3320389,3.2765714 9.5971564,3.2736176 9.7806256,3.2715734 9.8823893,3.3007315 10.897047,3.646072 l 1.100838,0.3746721 1.088735,-0.3725417 c 1.007122,-0.3446152 1.104722,-0.3726541 1.302006,-0.374041 0.289817,-0.00204 0.511636,0.097338 0.720264,0.322681 l 0.149722,0.1617181 1.104985,2.9406249 c 0.607741,1.6173438 1.13487,3.0206013 1.171397,3.1183501 l 0.06641,0.1777252 H 12.000471 6.3995348 Z"
     id="path164" />
</svg>
