<?xml version="1.0" encoding="UTF-8" standalone="no"?>
<svg
   width="36"
   height="59"
   version="1.1"
   id="svg21"
   sodipodi:docname="vr_overflow.svg"
   inkscape:version="1.1.2 (0a00cf5339, 2022-02-04)"
   xmlns:inkscape="http://www.inkscape.org/namespaces/inkscape"
   xmlns:sodipodi="http://sodipodi.sourceforge.net/DTD/sodipodi-0.dtd"
   xmlns="http://www.w3.org/2000/svg"
   xmlns:svg="http://www.w3.org/2000/svg">
  <sodipodi:namedview
     id="namedview23"
     pagecolor="#ffffff"
     bordercolor="#666666"
     borderopacity="1.0"
     inkscape:pageshadow="2"
     inkscape:pageopacity="0.0"
     inkscape:pagecheckerboard="0"
     showgrid="false"
     inkscape:zoom="14.305085"
     inkscape:cx="18.000592"
     inkscape:cy="29.534953"
     inkscape:window-width="1856"
     inkscape:window-height="1016"
     inkscape:window-x="1744"
     inkscape:window-y="27"
     inkscape:window-maximized="1"
     inkscape:current-layer="svg21" />
  <defs
     id="defs15">
    <filter
       x="-2.1"
       y="-0.50909091"
       width="5.2"
       height="2.0787879"
       filterUnits="objectBoundingBox"
       id="a">
      <feOffset
         dy="2"
         in="SourceAlpha"
         result="shadowOffsetOuter1"
         id="feOffset2" />
      <feGaussianBlur
         stdDeviation="7"
         in="shadowOffsetOuter1"
         result="shadowBlurOuter1"
         id="feGaussianBlur4" />
      <feColorMatrix
         values="0 0 0 0 0 0 0 0 0 0 0 0 0 0 0 0 0 0 0.130321558 0"
         in="shadowBlurOuter1"
         result="shadowMatrixOuter1"
         id="feColorMatrix6" />
      <feMerge
         id="feMerge12">
        <feMergeNode
           in="shadowMatrixOuter1"
           id="feMergeNode8" />
        <feMergeNode
           in="SourceGraphic"
           id="feMergeNode10" />
      </feMerge>
    </filter>
  </defs>
  <g
     filter="url(#a)"
     transform="translate(-670 -25)"
     fill="#565656"
     fill-rule="evenodd"
     id="g19">
    <path
       d="M688 44.25c2.208 0 4-1.848 4-4.125S690.208 36 688 36c-2.21 0-4 1.848-4 4.125s1.79 4.125 4 4.125zm0 4.125c-2.21 0-4 1.848-4 4.125s1.79 4.125 4 4.125c2.208 0 4-1.848 4-4.125s-1.792-4.125-4-4.125zm0 12.375c-2.21 0-4 1.848-4 4.125S685.79 69 688 69c2.208 0 4-1.848 4-4.125s-1.792-4.125-4-4.125z"
       id="path17" />
  </g>
  <path
     style="fill:#ff0000;stroke-width:0.0699052"
     d="m 16.994819,43.824938 c -0.619792,-0.166683 -1.197479,-0.516029 -1.73958,-1.05198 -0.79289,-0.783895 -1.205577,-1.782964 -1.203258,-2.912951 0.0023,-1.115463 0.387108,-2.040389 1.187355,-2.85386 1.581467,-1.607597 3.907133,-1.622 5.495393,-0.03403 0.798771,0.798623 1.212204,1.781724 1.214475,2.887891 0.0014,0.697683 -0.1047,1.146417 -0.43482,1.838453 -0.49273,1.032918 -1.469463,1.848864 -2.545209,2.126223 -0.527552,0.136018 -1.469082,0.13614 -1.974356,2.8e-4 z"
     id="path99" />
  <path
     style="fill:#ff0000;stroke-width:0.0699052"
     d="m 16.952014,31.431719 c -1.053303,-0.302668 -1.984182,-1.098089 -2.465213,-2.106482 -0.33012,-0.692036 -0.436252,-1.14077 -0.43482,-1.838453 0.0045,-2.200368 1.785719,-4.047727 3.913659,-4.059019 1.101262,-0.0058 1.932195,0.348662 2.76183,1.178296 0.835305,0.835305 1.219394,1.740948 1.221734,2.880723 0.0014,0.697022 -0.104577,1.145925 -0.434146,1.838453 -0.488075,1.025597 -1.475484,1.850243 -2.545883,2.126224 -0.555539,0.143233 -1.481534,0.134172 -2.017161,-0.01974 z"
     id="path138" />
  <path
     style="fill:#ff0000;stroke-width:0.0699052"
     d="m 17.029474,19.082584 c -1.089602,-0.299172 -2.057761,-1.110202 -2.543347,-2.13057 -0.329569,-0.692527 -0.435577,-1.141431 -0.434146,-1.838452 0.0037,-1.811017 1.199707,-3.408502 2.95227,-3.943353 0.232076,-0.07082 0.611566,-0.110738 1.031294,-0.108466 1.143948,0.0062 1.999699,0.394051 2.81694,1.276746 0.724079,0.782073 1.094619,1.727674 1.096719,2.798779 0.0036,1.827492 -1.257351,3.482676 -3.008061,3.948579 -0.468736,0.124741 -1.451582,0.123063 -1.911669,-0.0033 z"
     id="path177" />
</svg>
