<?xml version="1.0" encoding="UTF-8" standalone="no"?>
<svg
   width="48"
   height="48"
   fill="#626262"
   version="1.1"
   id="svg6"
   sodipodi:docname="warning.svg"
   inkscape:version="1.1.2 (0a00cf5339, 2022-02-04)"
   xmlns:inkscape="http://www.inkscape.org/namespaces/inkscape"
   xmlns:sodipodi="http://sodipodi.sourceforge.net/DTD/sodipodi-0.dtd"
   xmlns="http://www.w3.org/2000/svg"
   xmlns:svg="http://www.w3.org/2000/svg">
  <defs
     id="defs10" />
  <sodipodi:namedview
     id="namedview8"
     pagecolor="#ffffff"
     bordercolor="#666666"
     borderopacity="1.0"
     inkscape:pageshadow="2"
     inkscape:pageopacity="0.0"
     inkscape:pagecheckerboard="0"
     showgrid="false"
     inkscape:zoom="17.583333"
     inkscape:cx="23.971564"
     inkscape:cy="24.028436"
     inkscape:window-width="1856"
     inkscape:window-height="1016"
     inkscape:window-x="1744"
     inkscape:window-y="27"
     inkscape:window-maximized="1"
     inkscape:current-layer="svg6" />
  <path
     d="M0 0h48v48H0z"
     fill="none"
     id="path2" />
  <path
     d="M2 42h44L24 4 2 42zm24-6h-4v-4h4v4zm0-8h-4v-8h4v8z"
     id="path4" />
  <path
     style="fill:#ff0000;stroke-width:0.056872"
     d="M 2.1166671,41.866248 C 2.5038932,41.155852 23.976817,4.1232227 24.001505,4.1232227 c 0.02425,0 20.55477,35.4088683 21.769561,37.5458373 L 45.959194,42 H 24.001477 2.0437607 Z M 26.047393,34.009479 V 31.990521 H 24 21.952607 v 2.018958 2.018957 H 24 26.047393 Z M 26.047393,24 V 19.990521 H 24 21.952607 V 24 28.009479 H 24 26.047393 Z"
     id="path86" />
</svg>
