<?xml version="1.0" standalone="no"?>
<!DOCTYPE svg PUBLIC "-//W3C//DTD SVG 20010904//EN"
 "http://www.w3.org/TR/2001/REC-SVG-20010904/DTD/svg10.dtd">
<svg version="1.0" xmlns="http://www.w3.org/2000/svg"
 width="700.000000pt" height="700.000000pt" viewBox="0 0 700.000000 700.000000"
 preserveAspectRatio="xMidYMid meet">
<metadata>
Created by potrace 1.14, written by Peter Selinger 2001-2017
</metadata>
<g transform="translate(0.000000,700.000000) scale(0.100000,-0.100000)"
fill="#000000" stroke="none">
<path d="M3330 6743 c-55 -4 -252 -24 -290 -29 -58 -8 -293 -54 -325 -64 -16
-5 -41 -11 -55 -14 -38 -7 -285 -89 -375 -126 -607 -243 -1127 -669 -1494
-1222 -122 -184 -244 -422 -321 -628 -89 -236 -162 -522 -185 -725 -4 -33 -9
-67 -10 -76 -23 -119 -23 -582 -1 -719 2 -14 7 -47 11 -75 5 -42 34 -203 49
-280 51 -250 183 -596 329 -860 47 -84 212 -344 227 -355 3 -3 28 -34 55 -70
27 -36 56 -72 64 -81 9 -9 42 -46 73 -81 202 -228 472 -454 723 -605 459 -277
939 -431 1465 -470 225 -17 583 -1 755 33 11 2 34 6 50 9 204 35 424 99 643
187 161 65 431 200 440 221 2 4 8 7 14 7 13 0 186 115 294 196 605 456 1042
1142 1207 1894 24 108 29 137 43 243 3 23 7 56 9 72 27 194 25 617 -5 795 -5
30 -11 73 -14 95 -7 49 -14 92 -22 125 -3 14 -8 36 -10 50 -3 14 -9 39 -14 55
-5 17 -11 41 -14 55 -14 76 -111 367 -158 475 -42 95 -146 300 -172 338 -14
21 -26 40 -26 43 0 3 -26 45 -57 92 -32 48 -60 92 -63 97 -16 33 -199 263
-270 339 -184 200 -481 451 -652 551 -9 6 -48 29 -86 52 -278 170 -631 310
-962 382 -104 23 -110 24 -255 45 -170 25 -468 39 -615 29z"/>
</g>
</svg>
