<svg xmlns="http://www.w3.org/2000/svg" width="48" height="48" fill-rule="evenodd" class="vector-svg"><path fill="#1A73E8" stroke="#1A73E8" stroke-width="3px" stroke-linecap="round" shape-rendering="geometricPrecision" d="M 31.81 42 h 4.72 c 0.27 0 0.5 -0.23 0.5 -0.5 V 31.82 a 1.5 1.5 0 0 1 1.5 -1.5 a 4.99 4.99 0 0 0 4.99 -4.99 a 4.99 4.99 0 0 0 -4.99 -4.99 a 1.5 1.5 0 0 1 -1.5 -1.5 v -7.08 c 0 -0.27 -0.23 -0.5 -0.5 -0.5 h -7.38 a 1.5 1.5 0 0 1 -1.5 -1.5 a 4.99 4.99 0 0 0 -4.99 -4.99 a 4.99 4.99 0 0 0 -4.99 4.99 a 1.5 1.5 0 0 1 -1.5 1.5 H 6.5 c -0.27 0 -0.5 0.23 -0.5 0.5 v 8.32 c 3.69 0.7 6.49 3.96 6.49 7.85 S 9.69 35.07 6 35.77 v 5.72 c 0 0.27 0.23 0.5 0.5 0.5 h 9.62 c 0.7 -3.69 3.95 -6.49 7.85 -6.49 c 3.89 0 7.14 2.8 7.85 6.49 m 4.72 3 h -6.08 a 1.5 1.5 0 0 1 -1.5 -1.5 a 4.99 4.99 0 0 0 -4.99 -4.99 a 4.99 4.99 0 0 0 -4.99 4.99 a 1.5 1.5 0 0 1 -1.5 1.5 H 6.5 c -1.93 0 -3.5 -1.57 -3.5 -3.5 v -7.08 a 1.5 1.5 0 0 1 1.5 -1.5 a 4.99 4.99 0 0 0 4.99 -4.99 A 4.99 4.99 0 0 0 4.5 22.94 a 1.5 1.5 0 0 1 -1.5 -1.5 v -9.68 c 0 -1.93 1.57 -3.5 3.5 -3.5 h 8.32 c 0.7 -3.69 3.95 -6.49 7.84 -6.49 c 3.89 0 7.14 2.8 7.85 6.49 h 6.02 c 1.93 0 3.5 1.57 3.5 3.5 v 5.72 c 3.69 0.7 6.49 3.95 6.49 7.85 c 0 3.89 -2.8 7.14 -6.49 7.85 v 8.32 c 0 1.93 -1.57 3.5 -3.5 3.5 Z" style="fill: rgb(51, 103, 214); stroke: rgb(51, 103, 214);"/></svg>
